<svg xmlns="http://www.w3.org/2000/svg" viewBox="0 0 500 500"><g id="freepik--Floor--inject-152"><path id="freepik--floor--inject-152" d="M79.34,453.84c-94.26-54.42-94.26-142.64,0-197.06s247.07-54.42,341.32,0,94.26,142.64,0,197.06S173.59,508.26,79.34,453.84Z" style="fill:#f5f5f5"></path></g><g id="freepik--Shadows--inject-152"><path id="freepik--Shadow--inject-152" d="M146.24,434.48a.59.59,0,0,0-.8-.21l-11.33,6.55a2.67,2.67,0,0,1-2.68,0L55.84,397.18a2.64,2.64,0,0,1,0-4.56l27.52-15.91v-1.35L55.26,391.6a3.81,3.81,0,0,0,0,6.59l75.59,43.64a3.8,3.8,0,0,0,3.84,0L146,435.28A.59.59,0,0,0,146.24,434.48Z" style="fill:#e0e0e0"></path><path id="freepik--shadow--inject-152" d="M233.91,487.68,80.63,399.18c-3.94-2.27-3.94-6,0-8.25L288.81,270.75a15.78,15.78,0,0,1,14.29,0l153.27,88.49c3.94,2.28,3.94,6,0,8.25L248.2,487.68A15.78,15.78,0,0,1,233.91,487.68Z" style="fill:#e0e0e0"></path></g><g id="freepik--Shelf--inject-152"><g id="freepik--Bookcase--inject-152"><polygon points="212.75 282.29 176.46 261.34 22.27 350.36 22.27 354.34 58.57 375.3 212.75 286.28 212.75 282.29" style="fill:#ebebeb"></polygon><polygon points="58.57 371.31 212.75 282.29 176.46 261.34 22.27 350.36 58.57 371.31" style="fill:#f5f5f5"></polygon><polygon points="58.57 371.31 58.57 375.3 22.27 354.34 22.27 350.36 58.57 371.31" style="fill:#e0e0e0"></polygon><polygon points="212.75 136.56 176.46 115.6 173 117.59 173.01 263.33 209.3 284.28 212.75 282.29 212.75 136.56" style="fill:#ebebeb"></polygon><polygon points="173.01 263.33 209.3 284.28 209.3 138.55 173 117.59 173.01 263.33" style="fill:#e0e0e0"></polygon><polygon points="179.92 210.1 207.61 226.1 207.61 280.68 179.92 264.69 179.92 210.1" style="fill:#e0e0e0"></polygon><path d="M206.71,227,179.92,211.6a11.31,11.31,0,0,1-6.13,3.35l26.57,15.31S202.08,229.86,206.71,227Z" style="fill:#fff"></path><path d="M197.79,230.16a5.7,5.7,0,0,0,5.15,0l4.51-2.58c1.42-.82,1.42-2.14,0-3L181,209.47l-1.12.63,26,15a.94.94,0,0,1,0,1.78l-4.19,2.37a3.43,3.43,0,0,1-3.09,0l-26-15-1.27.73Z" style="fill:#fafafa"></path><path d="M171.38,215v54.58l26.41,15.15a5.7,5.7,0,0,0,5.15,0l4.51-2.59a1.78,1.78,0,0,0,1.06-1.47V226.1a1.78,1.78,0,0,1-1.06,1.47l-4.51,2.6a5.76,5.76,0,0,1-5.15,0Z" style="fill:#e0e0e0"></path><path d="M200.36,230.78a5.32,5.32,0,0,0,2.58-.61l4.51-2.6a1.78,1.78,0,0,0,1.06-1.47v54.58a1.78,1.78,0,0,1-1.06,1.47l-4.51,2.59a5.32,5.32,0,0,1-2.58.61Z" style="fill:#f0f0f0"></path><polygon points="168.6 216.6 196.28 232.6 196.28 287.18 168.6 271.19 168.6 216.6" style="fill:#ebebeb"></polygon><path d="M195.39,233.47,168.6,218.1a11.31,11.31,0,0,1-6.13,3.35L189,236.76S190.76,236.36,195.39,233.47Z" style="fill:#fff"></path><path d="M186.46,236.66a5.7,5.7,0,0,0,5.15,0l4.51-2.58c1.43-.82,1.43-2.14,0-3L169.72,216l-1.12.63,26,15a.94.94,0,0,1,0,1.78l-4.19,2.37a3.43,3.43,0,0,1-3.09,0l-26-15-1.26.73Z" style="fill:#fafafa"></path><path d="M160.06,221.51v54.58l26.4,15.15a5.7,5.7,0,0,0,5.15,0l4.52-2.59a1.81,1.81,0,0,0,1.06-1.47V232.6a1.8,1.8,0,0,1-1.06,1.47l-4.52,2.6a5.76,5.76,0,0,1-5.15,0Z" style="fill:#e0e0e0"></path><path d="M189,237.28a5.25,5.25,0,0,0,2.57-.61l4.52-2.6a1.8,1.8,0,0,0,1.06-1.47v54.58a1.81,1.81,0,0,1-1.06,1.47l-4.52,2.59a5.25,5.25,0,0,1-2.57.61Z" style="fill:#f0f0f0"></path><polygon points="146.24 230.7 173.92 246.69 173.92 299.36 146.24 283.37 146.24 230.7" style="fill:#e0e0e0"></polygon><path d="M173,247.57l-26.79-15.38a11.31,11.31,0,0,1-6.13,3.35l26.57,15.31S168.39,250.45,173,247.57Z" style="fill:#fff"></path><path d="M164.1,250.76a5.76,5.76,0,0,0,5.15,0l4.51-2.59c1.42-.82,1.42-2.14,0-3l-26.4-15.15-1.12.64,26,15a.93.93,0,0,1,0,1.77l-4.2,2.38a3.43,3.43,0,0,1-3.09,0l-26-15-1.27.72Z" style="fill:#fafafa"></path><path d="M137.7,235.6v52.67l26.4,15.15a5.7,5.7,0,0,0,5.15,0l4.51-2.58a1.8,1.8,0,0,0,1.07-1.48V246.69a1.8,1.8,0,0,1-1.07,1.48l-4.51,2.59a5.7,5.7,0,0,1-5.15,0Z" style="fill:#e0e0e0"></path><path d="M166.68,251.37a5.25,5.25,0,0,0,2.57-.61l4.51-2.59a1.8,1.8,0,0,0,1.07-1.48v52.67a1.8,1.8,0,0,1-1.07,1.48l-4.51,2.58a5.25,5.25,0,0,1-2.57.62Z" style="fill:#f0f0f0"></path><polygon points="134.91 237.2 162.6 253.19 162.6 305.86 134.91 289.87 134.91 237.2" style="fill:#ebebeb"></polygon><path d="M161.71,254.07l-26.8-15.38a11.27,11.27,0,0,1-6.12,3.35l26.56,15.31S157.07,257,161.71,254.07Z" style="fill:#fff"></path><path d="M152.78,257.26a5.76,5.76,0,0,0,5.15,0l4.51-2.59c1.42-.82,1.42-2.14,0-3L136,236.56l-1.12.64,26,15a.93.93,0,0,1,0,1.77l-4.2,2.38a3.43,3.43,0,0,1-3.09,0l-26-15-1.27.72Z" style="fill:#fafafa"></path><path d="M126.38,242.1v52.67l26.4,15.15a5.7,5.7,0,0,0,5.15,0l4.51-2.58a1.8,1.8,0,0,0,1.07-1.48V253.19a1.8,1.8,0,0,1-1.07,1.48l-4.51,2.59a5.7,5.7,0,0,1-5.15,0Z" style="fill:#e0e0e0"></path><path d="M155.35,257.87a5.26,5.26,0,0,0,2.58-.61l4.51-2.59a1.8,1.8,0,0,0,1.07-1.48v52.67a1.8,1.8,0,0,1-1.07,1.48l-4.51,2.58a5.27,5.27,0,0,1-2.58.62Z" style="fill:#f0f0f0"></path><polygon points="116.01 251.19 143.69 267.19 135.09 321.45 107.41 305.46 116.01 251.19" style="fill:#ebebeb"></polygon><path d="M142.6,268l-26.81-15.39a14.67,14.67,0,0,1-7.13,2.77l26.57,15.31S137.15,270.36,142.6,268Z" style="fill:#fff"></path><path d="M132.45,270.43a7.24,7.24,0,0,0,5.59.26l5.27-2.16c1.66-.68,1.85-1.89.43-2.7l-26.42-15.17-1.31.53,26,15c.85.49.74,1.22-.26,1.63l-4.89,2a4.31,4.31,0,0,1-3.35-.15l-26-15-1.48.6Z" style="fill:#fafafa"></path><path d="M106,255.27l-8.6,54.26,26.42,15.16a7.17,7.17,0,0,0,5.58.25l5.27-2.15c.83-.34,1.29-.81,1.37-1.3l8.6-54.26c-.08.49-.55,1-1.37,1.3L138,270.69a7.24,7.24,0,0,1-5.59-.25Z" style="fill:#e0e0e0"></path><path d="M135.16,271.12a6.93,6.93,0,0,0,2.88-.43l5.27-2.16c.82-.34,1.29-.81,1.37-1.3l-8.6,54.26c-.08.49-.54,1-1.37,1.3l-5.27,2.15a7.09,7.09,0,0,1-2.88.44Z" style="fill:#f0f0f0"></path><polygon points="96.26 260.93 123.94 276.93 123.94 328.32 96.26 312.33 96.26 260.93" style="fill:#e0e0e0"></polygon><path d="M123.05,277.8,96.26,262.42a11.24,11.24,0,0,1-6.13,3.35l26.57,15.32S118.42,280.68,123.05,277.8Z" style="fill:#fff"></path><path d="M114.12,281a5.7,5.7,0,0,0,5.15,0l4.52-2.59c1.42-.81,1.42-2.13,0-2.95L97.38,260.3l-1.12.63,26,15a.94.94,0,0,1,0,1.78L118,280.08a3.43,3.43,0,0,1-3.09,0l-26-15-1.26.73Z" style="fill:#fafafa"></path><path d="M87.72,265.84v51.39l26.4,15.16a5.76,5.76,0,0,0,5.15,0l4.52-2.59a1.81,1.81,0,0,0,1.06-1.48v-51.4a1.81,1.81,0,0,1-1.06,1.48l-4.52,2.6a5.76,5.76,0,0,1-5.15,0Z" style="fill:#e0e0e0"></path><path d="M116.7,281.61a5.36,5.36,0,0,0,2.57-.61l4.52-2.6a1.81,1.81,0,0,0,1.06-1.48v51.4a1.81,1.81,0,0,1-1.06,1.48l-4.52,2.59a5.25,5.25,0,0,1-2.57.61Z" style="fill:#f0f0f0"></path><polygon points="84.94 267.43 112.62 283.43 112.62 334.82 84.94 318.83 84.94 267.43" style="fill:#ebebeb"></polygon><path d="M111.73,284.3,84.94,268.92a11.24,11.24,0,0,1-6.13,3.35l26.57,15.32S107.09,287.18,111.73,284.3Z" style="fill:#fff"></path><path d="M102.8,287.49a5.7,5.7,0,0,0,5.15,0l4.51-2.59c1.43-.81,1.43-2.13,0-2.95l-26.4-15.16-1.12.64,26,15a.93.93,0,0,1,0,1.77l-4.19,2.38a3.45,3.45,0,0,1-3.1,0l-26-15-1.26.73Z" style="fill:#fafafa"></path><path d="M76.4,272.34v51.39l26.4,15.16a5.76,5.76,0,0,0,5.15,0l4.51-2.59a1.8,1.8,0,0,0,1.07-1.48v-51.4a1.8,1.8,0,0,1-1.07,1.48L108,287.5a5.76,5.76,0,0,1-5.15,0Z" style="fill:#e0e0e0"></path><path d="M105.38,288.11a5.36,5.36,0,0,0,2.57-.61l4.51-2.6a1.8,1.8,0,0,0,1.07-1.48v51.4a1.8,1.8,0,0,1-1.07,1.48L108,338.89a5.25,5.25,0,0,1-2.57.61Z" style="fill:#f0f0f0"></path><polygon points="61.14 279.52 88.83 295.52 88.83 348.19 61.14 332.2 61.14 279.52" style="fill:#e0e0e0"></polygon><path d="M87.94,296.39,61.14,281A11.3,11.3,0,0,1,55,284.36l26.57,15.32S83.3,299.27,87.94,296.39Z" style="fill:#fff"></path><path d="M79,299.58a5.7,5.7,0,0,0,5.15,0L88.67,297c1.42-.82,1.42-2.14,0-3L62.26,278.89l-1.12.63,26,15a.94.94,0,0,1,0,1.78l-4.19,2.37a3.43,3.43,0,0,1-3.09,0l-26-15-1.27.73Z" style="fill:#fafafa"></path><path d="M52.6,284.43V337.1L79,352.25a5.7,5.7,0,0,0,5.15,0l4.51-2.59a1.79,1.79,0,0,0,1.06-1.48V295.52A1.79,1.79,0,0,1,88.67,297l-4.51,2.6a5.76,5.76,0,0,1-5.15,0Z" style="fill:#e0e0e0"></path><path d="M81.58,300.2a5.4,5.4,0,0,0,2.58-.61l4.51-2.6a1.79,1.79,0,0,0,1.06-1.47v52.66a1.79,1.79,0,0,1-1.06,1.48l-4.51,2.59a5.29,5.29,0,0,1-2.58.61Z" style="fill:#f0f0f0"></path><polygon points="49.82 286.02 77.5 302.02 77.5 354.69 49.82 338.7 49.82 286.02" style="fill:#ebebeb"></polygon><path d="M76.61,302.89,49.82,287.51a11.24,11.24,0,0,1-6.13,3.35l26.57,15.32S72,305.77,76.61,302.89Z" style="fill:#fff"></path><path d="M67.68,306.08a5.7,5.7,0,0,0,5.15,0l4.52-2.59c1.42-.81,1.42-2.13,0-2.95L50.94,285.38l-1.12.64,26,15a.94.94,0,0,1,0,1.78l-4.19,2.37a3.43,3.43,0,0,1-3.09,0l-26-15-1.26.73Z" style="fill:#fafafa"></path><path d="M41.28,290.93V343.6l26.4,15.15a5.7,5.7,0,0,0,5.15,0l4.52-2.59a1.81,1.81,0,0,0,1.06-1.48V302a1.81,1.81,0,0,1-1.06,1.48l-4.52,2.6a5.76,5.76,0,0,1-5.15,0Z" style="fill:#e0e0e0"></path><path d="M70.26,306.7a5.36,5.36,0,0,0,2.57-.61l4.52-2.6A1.81,1.81,0,0,0,78.41,302v52.67a1.81,1.81,0,0,1-1.06,1.48l-4.52,2.59a5.25,5.25,0,0,1-2.57.61Z" style="fill:#f0f0f0"></path><polygon points="205.75 216.15 169.46 195.18 22.27 280.15 22.27 284.13 58.57 305.11 205.75 220.13 205.75 216.15" style="fill:#ebebeb"></polygon><polygon points="58.57 301.12 205.75 216.15 169.46 195.18 22.27 280.15 58.57 301.12" style="fill:#f5f5f5"></polygon><polygon points="58.57 301.12 58.57 305.11 22.27 284.13 22.27 280.15 58.57 301.12" style="fill:#e0e0e0"></polygon><polygon points="177.08 144.31 204.77 160.3 196.17 214.56 168.48 198.57 177.08 144.31" style="fill:#ebebeb"></polygon><path d="M203.67,161.06l-26.8-15.38a14.77,14.77,0,0,1-7.13,2.77l26.57,15.31S198.23,163.47,203.67,161.06Z" style="fill:#fff"></path><path d="M193.53,163.55a7.17,7.17,0,0,0,5.58.25l5.27-2.15c1.66-.68,1.85-1.89.43-2.71l-26.42-15.16-1.31.53,26,15c.86.49.74,1.22-.25,1.62l-4.9,2a4.35,4.35,0,0,1-3.35-.16l-26-15-1.48.61Z" style="fill:#fafafa"></path><path d="M167.11,148.39l-8.6,54.26,26.42,15.16a7.21,7.21,0,0,0,5.58.25l5.27-2.15c.83-.34,1.29-.81,1.37-1.3l8.6-54.27c-.08.5-.54,1-1.37,1.31l-5.27,2.15a7.17,7.17,0,0,1-5.58-.25Z" style="fill:#e0e0e0"></path><path d="M196.23,164.24a7.09,7.09,0,0,0,2.88-.44l5.27-2.15c.83-.34,1.29-.81,1.37-1.31l-8.6,54.27c-.08.49-.54,1-1.37,1.3l-5.27,2.15a6.93,6.93,0,0,1-2.88.43Z" style="fill:#f0f0f0"></path><polygon points="143.21 159.59 170.9 175.58 170.9 228.25 143.21 212.26 143.21 159.59" style="fill:#ebebeb"></polygon><path d="M170,176.45l-26.79-15.37a11.31,11.31,0,0,1-6.13,3.35l26.57,15.31S165.37,179.34,170,176.45Z" style="fill:#fff"></path><path d="M161.07,179.65a5.76,5.76,0,0,0,5.15,0l4.52-2.59c1.42-.82,1.42-2.14,0-3L144.33,159l-1.12.64,26,15a.94.94,0,0,1,0,1.78L165,178.74a3.46,3.46,0,0,1-3.09,0l-26-15-1.26.73Z" style="fill:#fafafa"></path><path d="M134.67,164.49v52.67l26.4,15.15a5.7,5.7,0,0,0,5.15,0l4.52-2.59a1.8,1.8,0,0,0,1.06-1.47V175.58a1.8,1.8,0,0,1-1.06,1.47l-4.52,2.6a5.76,5.76,0,0,1-5.15,0Z" style="fill:#e0e0e0"></path><path d="M163.65,180.26a5.25,5.25,0,0,0,2.57-.61l4.52-2.6a1.8,1.8,0,0,0,1.06-1.47v52.67a1.8,1.8,0,0,1-1.06,1.47l-4.52,2.59a5.25,5.25,0,0,1-2.57.61Z" style="fill:#f0f0f0"></path><polygon points="129.1 158.33 156.79 174.33 156.79 236.31 129.1 220.32 129.1 158.33" style="fill:#e0e0e0"></polygon><path d="M155.9,175.2l-26.8-15.38a11.21,11.21,0,0,1-6.12,3.35l26.56,15.32S151.26,178.08,155.9,175.2Z" style="fill:#fff"></path><path d="M147,178.39a5.7,5.7,0,0,0,5.15,0l4.51-2.59c1.42-.81,1.42-2.13,0-3l-26.41-15.16-1.12.64,26,15c.86.49.86,1.29,0,1.77l-4.19,2.38a3.43,3.43,0,0,1-3.09,0l-26-15-1.27.73Z" style="fill:#fafafa"></path><path d="M120.56,163.24v62L147,240.37a5.7,5.7,0,0,0,5.15,0l4.51-2.58a1.79,1.79,0,0,0,1.06-1.48v-62a1.79,1.79,0,0,1-1.06,1.48l-4.51,2.6a5.76,5.76,0,0,1-5.15,0Z" style="fill:#e0e0e0"></path><path d="M149.54,179a5.4,5.4,0,0,0,2.58-.61l4.51-2.6a1.79,1.79,0,0,0,1.06-1.48v62a1.79,1.79,0,0,1-1.06,1.48l-4.51,2.58a5.29,5.29,0,0,1-2.58.62Z" style="fill:#f0f0f0"></path><polygon points="117.78 164.83 145.47 180.83 145.47 242.81 117.78 226.82 117.78 164.83" style="fill:#ebebeb"></polygon><path d="M144.57,181.7l-26.79-15.38a11.24,11.24,0,0,1-6.13,3.35L138.22,185S139.94,184.58,144.57,181.7Z" style="fill:#fff"></path><path d="M135.65,184.89a5.68,5.68,0,0,0,5.14,0l4.52-2.59c1.42-.81,1.42-2.13,0-3L118.9,164.19l-1.12.64,26,15a.93.93,0,0,1,0,1.77L139.56,184a3.43,3.43,0,0,1-3.09,0l-26-15-1.27.73Z" style="fill:#fafafa"></path><path d="M109.24,169.74v62l26.41,15.15a5.68,5.68,0,0,0,5.14,0l4.52-2.58a1.81,1.81,0,0,0,1.06-1.48v-62a1.81,1.81,0,0,1-1.06,1.48l-4.52,2.6a5.74,5.74,0,0,1-5.14,0Z" style="fill:#e0e0e0"></path><path d="M138.22,185.51a5.36,5.36,0,0,0,2.57-.61l4.52-2.6a1.81,1.81,0,0,0,1.06-1.48v62a1.81,1.81,0,0,1-1.06,1.48l-4.52,2.58a5.25,5.25,0,0,1-2.57.62Z" style="fill:#f0f0f0"></path><polygon points="84.25 188.06 115.11 205.88 105.53 266.38 74.66 248.55 84.25 188.06" style="fill:#ebebeb"></polygon><path d="M113.89,206.73,84,189.58a16.43,16.43,0,0,1-8,3.09l29.62,17.07S107.82,209.42,113.89,206.73Z" style="fill:#fff"></path><path d="M102.58,209.51a8,8,0,0,0,6.23.27l5.87-2.39c1.85-.76,2.07-2.11.48-3L85.71,187.46l-1.46.6,29,16.72c1,.54.82,1.35-.29,1.81l-5.45,2.2a4.83,4.83,0,0,1-3.74-.17L74.78,191.93l-1.65.67Z" style="fill:#fafafa"></path><path d="M73.13,192.6l-9.58,60.49L93,270a8,8,0,0,0,6.22.28l5.87-2.39c.93-.38,1.44-.91,1.53-1.46l9.59-60.49c-.09.55-.61,1.07-1.53,1.45l-5.87,2.41a8.07,8.07,0,0,1-6.23-.28Z" style="fill:#e0e0e0"></path><path d="M105.59,210.27a7.85,7.85,0,0,0,3.22-.48l5.87-2.41c.92-.38,1.44-.9,1.53-1.45l-9.59,60.49c-.09.55-.6,1.08-1.53,1.46l-5.87,2.39a7.77,7.77,0,0,1-3.21.49Z" style="fill:#f0f0f0"></path><polygon points="63.71 197.8 91.39 213.8 91.39 274.35 63.71 258.36 63.71 197.8" style="fill:#e0e0e0"></polygon><path d="M90.5,214.67,63.71,199.3a11.3,11.3,0,0,1-6.13,3.34L84.15,218S85.86,217.55,90.5,214.67Z" style="fill:#fff"></path><path d="M81.57,217.86a5.7,5.7,0,0,0,5.15,0l4.51-2.59c1.43-.81,1.43-2.13,0-3l-26.4-15.15-1.12.63,26,15a.94.94,0,0,1,0,1.78L85.49,217a3.45,3.45,0,0,1-3.1,0l-26-15-1.26.73Z" style="fill:#fafafa"></path><path d="M55.17,202.71v60.55l26.4,15.16a5.76,5.76,0,0,0,5.15,0l4.51-2.59a1.8,1.8,0,0,0,1.07-1.48V213.8a1.8,1.8,0,0,1-1.07,1.47l-4.51,2.6a5.76,5.76,0,0,1-5.15,0Z" style="fill:#e0e0e0"></path><path d="M84.15,218.48a5.36,5.36,0,0,0,2.57-.61l4.51-2.6a1.8,1.8,0,0,0,1.07-1.47v60.55a1.8,1.8,0,0,1-1.07,1.48l-4.51,2.59a5.36,5.36,0,0,1-2.57.61Z" style="fill:#f0f0f0"></path><polygon points="52.38 204.3 80.07 220.3 80.07 280.85 52.38 264.86 52.38 204.3" style="fill:#ebebeb"></polygon><path d="M79.18,221.17,52.39,205.79a11.28,11.28,0,0,1-6.13,3.35l26.57,15.32S74.54,224.05,79.18,221.17Z" style="fill:#fff"></path><path d="M70.25,224.36a5.7,5.7,0,0,0,5.15,0l4.51-2.59c1.42-.81,1.42-2.13,0-3L53.5,203.66l-1.11.64,26,15a.93.93,0,0,1,0,1.77l-4.2,2.38a3.43,3.43,0,0,1-3.09,0l-26-15-1.27.73Z" style="fill:#fafafa"></path><path d="M43.85,209.21v60.55l26.4,15.16a5.76,5.76,0,0,0,5.15,0l4.51-2.59A1.8,1.8,0,0,0,81,280.85V220.29a1.8,1.8,0,0,1-1.07,1.48l-4.51,2.6a5.76,5.76,0,0,1-5.15,0Z" style="fill:#e0e0e0"></path><path d="M72.83,225a5.36,5.36,0,0,0,2.57-.61l4.51-2.6A1.8,1.8,0,0,0,81,220.29v60.56a1.8,1.8,0,0,1-1.07,1.48l-4.51,2.59a5.36,5.36,0,0,1-2.57.61Z" style="fill:#f0f0f0"></path><polygon points="62.02 223.58 25.72 202.63 22.27 204.62 22.27 354.34 58.57 375.3 62.02 373.3 62.02 223.58" style="fill:#ebebeb"></polygon><polygon points="22.27 354.34 58.57 375.3 58.57 225.57 22.27 204.62 22.27 354.34" style="fill:#e6e6e6"></polygon><polygon points="212.75 132.57 176.46 111.61 22.27 200.63 22.27 204.62 58.57 225.57 212.75 136.56 212.75 132.57" style="fill:#ebebeb"></polygon><polygon points="58.57 221.59 212.75 132.57 176.46 111.61 22.27 200.63 58.57 221.59" style="fill:#fafafa"></polygon><polygon points="58.57 221.59 58.57 225.57 22.27 204.62 22.27 200.63 58.57 221.59" style="fill:#e6e6e6"></polygon></g></g><g id="freepik--Rocket--inject-152"><g id="freepik--rocket--inject-152"><path d="M466.57,171.89c-5.45-45.42-39.9-63-67.33-70.59l-.69,1.21-1.49,2.62-.82,1.43c34.22,21.46,40.33,43.76,38,66.42-2.23,21.67-29.09,47.82-61.64,60.26l15.7,9L410,254.78l8.91,5.14a20.52,20.52,0,0,1,4.78,3.92C442.59,248.59,471.75,215.1,466.57,171.89Z" style="fill:#008672"></path><path d="M466.57,171.89c-5.45-45.42-39.9-63-67.33-70.59l-.69,1.21-1.49,2.62-.82,1.43c34.22,21.46,40.33,43.76,38,66.42-2.23,21.67-29.09,47.82-61.64,60.26l15.7,9L410,254.78l8.91,5.14a20.52,20.52,0,0,1,4.78,3.92C442.59,248.59,471.75,215.1,466.57,171.89Z" style="fill:#fff;opacity:0.85"></path><path d="M457.86,176c.34,42.73-34,69.68-47.89,78.8l-21.66-12.49c16-9.31,49.77-32.59,54.49-65.73,6.28-44.22-35.53-65.82-45.74-71.43l1.49-2.62C415.34,108.79,457.49,129.33,457.86,176Z" style="fill:#fff;opacity:0.55"></path><path d="M394.9,110.37c-3-.64-22.75-5-31.54-9.71-10.92-5.89-18.43-15.92-22.82-23.3a.44.44,0,0,1,0-.43.44.44,0,0,1,.34-.25,76.68,76.68,0,0,1,12.37-1,54.49,54.49,0,0,1,20.15,3.54c9.29,3.69,25.28,16,27.7,17.93Z" style="fill:#f5f5f5"></path><path d="M353.23,76.14h0a53.84,53.84,0,0,1,20,3.51c8.9,3.53,24,15.09,27.27,17.61l-5.85,12.54c-4-.87-22.59-5-31-9.57C352.81,94.4,345.36,84.48,341,77.16a77,77,0,0,1,12.22-1m0-1a77.71,77.71,0,0,0-12.45,1,1,1,0,0,0-.67,1.43c3.18,5.36,10.81,16.91,23,23.49,9.66,5.22,32.06,9.84,32.06,9.84l6.53-14s-17.94-14.19-28.15-18.24a55.37,55.37,0,0,0-20.33-3.58Z" style="fill:#e0e0e0"></path><path d="M363.51,92.15a4.07,4.07,0,1,1,5.41-2A4.07,4.07,0,0,1,363.51,92.15Z" style="fill:#008672"></path><path d="M363.51,92.15a4.07,4.07,0,1,1,5.41-2A4.07,4.07,0,0,1,363.51,92.15Z" style="fill:#fff;opacity:0.55"></path><path d="M375.24,96.29a3,3,0,1,1,3.92-1.43A2.95,2.95,0,0,1,375.24,96.29Z" style="fill:#008672"></path><path d="M375.24,96.29a3,3,0,1,1,3.92-1.43A2.95,2.95,0,0,1,375.24,96.29Z" style="fill:#fff;opacity:0.55"></path><path d="M366,93.17a4.78,4.78,0,0,1-2.79-.38h0a4.79,4.79,0,1,1,2.79.38Zm-2.19-1.66a3.37,3.37,0,0,0,4.47-1.63,3.37,3.37,0,0,0-1.63-4.47,3.36,3.36,0,0,0-2.84,6.1Z" style="fill:#008672"></path><path d="M377.09,97.32A3.81,3.81,0,0,1,374.9,97a3.73,3.73,0,1,1,2.19.31Zm-.95-5.83a2.48,2.48,0,0,0-.39.1,2.15,2.15,0,0,0-.18,4,2.15,2.15,0,1,0,1.82-3.89A2.09,2.09,0,0,0,376.14,91.49Z" style="fill:#008672"></path><path d="M354.23,75.16a76.49,76.49,0,0,0-13.45,1,1,1,0,0,0-.67,1.43,77.57,77.57,0,0,0,7.82,10.93A15.93,15.93,0,0,0,354.23,75.16Z" style="fill:#008672"></path><path d="M390.66,109.94c2.76.64,4.52,1,4.52,1l6.53-14s-1.42-1.12-3.69-2.82Z" style="fill:#455a64"></path><path d="M382.22,107.83c1.17,4.28,3.07,10.86,4.69,12.9s15.3,3.47,15.3,3.47l1.84-3.94s-10.42-3.56-11.14-4.45-1.32-5.66-1.32-5.66Z" style="fill:#008672"></path><path d="M382.22,107.83c1.17,4.28,3.07,10.86,4.69,12.9s15.3,3.47,15.3,3.47l1.84-3.94s-10.42-3.56-11.14-4.45-1.32-5.66-1.32-5.66Z" style="opacity:0.25"></path><path d="M391,89c4-1.85,10.29-4.63,12.9-4.7s12.49,9.5,12.49,9.5l-1.84,3.94s-9.42-5.69-10.56-5.68-5.19,2.63-5.19,2.63Z" style="fill:#008672"></path><path d="M391,89c4-1.85,10.29-4.63,12.9-4.7s12.49,9.5,12.49,9.5l-1.84,3.94s-9.42-5.69-10.56-5.68-5.19,2.63-5.19,2.63Z" style="opacity:0.25"></path></g></g><g id="freepik--Stars--inject-152"><path id="freepik--Star--inject-152" d="M323.91,135.86l-2.5-2.31-3.33.75a.88.88,0,0,1-1-1.23l1.42-3.1L316.77,127a.88.88,0,0,1,.86-1.32l3.39.4,2.25-2.57a.89.89,0,0,1,1.53.41l.66,3.35,3.13,1.35a.88.88,0,0,1,.09,1.58l-3,1.66-.31,3.4A.88.88,0,0,1,323.91,135.86Z" style="fill:#008672"></path><path id="freepik--star--inject-152" d="M179.37,43.56l1.75,2.93,3.4.22a.88.88,0,0,1,.61,1.46l-2.25,2.56.85,3.31a.89.89,0,0,1-1.21,1l-3.13-1.34-2.88,1.82a.89.89,0,0,1-1.36-.83l.31-3.39-2.62-2.18a.88.88,0,0,1,.37-1.54l3.32-.76,1.26-3.16A.88.88,0,0,1,179.37,43.56Z" style="fill:#008672"></path><path id="freepik--star--inject-152" d="M357,36.29l.2,2,1.74.94a.51.51,0,0,1,0,.92l-1.8.8-.37,1.94a.51.51,0,0,1-.88.25l-1.32-1.47-2,.26a.51.51,0,0,1-.51-.77l1-1.71-.84-1.78a.51.51,0,0,1,.57-.72l1.93.41L356.15,36A.51.51,0,0,1,357,36.29Z" style="fill:#008672"></path><path id="freepik--star--inject-152" d="M465,261.77l.35,1.83,1.71.75a.49.49,0,0,1,0,.87l-1.64.9-.18,1.86a.48.48,0,0,1-.81.31L463.09,267l-1.82.4a.48.48,0,0,1-.54-.68l.79-1.69-.95-1.61a.49.49,0,0,1,.48-.73l1.85.23,1.24-1.4A.49.49,0,0,1,465,261.77Z" style="fill:#008672"></path><path id="freepik--star--inject-152" d="M32.18,156l.66,3.38L36,160.77a.89.89,0,0,1,.08,1.6l-3,1.67-.33,3.42a.9.9,0,0,1-1.5.57l-2.51-2.35-3.36.75a.89.89,0,0,1-1-1.25l1.45-3.12-1.74-3a.89.89,0,0,1,.87-1.34l3.42.42,2.28-2.58A.89.89,0,0,1,32.18,156Z" style="fill:#008672"></path><path id="freepik--star--inject-152" d="M482,236.91l.65,3.35,3.13,1.36a.88.88,0,0,1,.07,1.58l-3,1.65-.33,3.4a.88.88,0,0,1-1.48.56l-2.49-2.33-3.33.74a.88.88,0,0,1-1-1.24l1.44-3.09L474,240a.89.89,0,0,1,.87-1.33l3.38.42,2.26-2.56A.89.89,0,0,1,482,236.91Z" style="fill:#e0e0e0"></path><path id="freepik--star--inject-152" d="M46.21,139.83l.42,2.15,2,.88a.57.57,0,0,1,0,1l-1.92,1.06-.21,2.18a.57.57,0,0,1-1,.36L44,146l-2.14.47a.56.56,0,0,1-.63-.79l.92-2L41,141.79a.57.57,0,0,1,.56-.85l2.18.26,1.45-1.64A.57.57,0,0,1,46.21,139.83Z" style="fill:#e0e0e0"></path><path id="freepik--star--inject-152" d="M474.57,110.3l.65,3.35,3.12,1.36a.88.88,0,0,1,.08,1.58l-3,1.66-.33,3.39a.88.88,0,0,1-1.48.56l-2.49-2.32-3.33.73a.88.88,0,0,1-1-1.23l1.44-3.09-1.73-2.94a.89.89,0,0,1,.87-1.33l3.38.42,2.26-2.55A.88.88,0,0,1,474.57,110.3Z" style="fill:#e0e0e0"></path><path id="freepik--star--inject-152" d="M44.24,43l.65,3.35L48,47.72a.88.88,0,0,1,.07,1.58l-3,1.66-.33,3.39a.88.88,0,0,1-1.48.56l-2.49-2.32-3.33.73a.88.88,0,0,1-1-1.23L37.93,49,36.2,46.06a.88.88,0,0,1,.87-1.32l3.38.41,2.26-2.55A.88.88,0,0,1,44.24,43Z" style="fill:#e0e0e0"></path><path id="freepik--star--inject-152" d="M334.42,31.47l.35,3.39,3,1.63a.88.88,0,0,1-.06,1.58l-3.11,1.38L334,42.81a.88.88,0,0,1-1.53.42l-2.27-2.53-3.38.44a.88.88,0,0,1-.88-1.32l1.7-3-1.46-3.08a.88.88,0,0,1,1-1.24l3.33.71,2.48-2.34A.88.88,0,0,1,334.42,31.47Z" style="fill:#e0e0e0"></path><path id="freepik--star--inject-152" d="M337.2,118.07l-1.34-1.24-1.79.4a.47.47,0,0,1-.54-.66l.77-1.67-.94-1.57a.48.48,0,0,1,.46-.72l1.83.22,1.21-1.38a.47.47,0,0,1,.82.22l.36,1.8,1.69.72a.48.48,0,0,1,0,.85l-1.6.9-.17,1.83A.48.48,0,0,1,337.2,118.07Z" style="fill:#e0e0e0"></path><path id="freepik--star--inject-152" d="M153.85,39.6l.94,1.58,1.84.12a.47.47,0,0,1,.32.78l-1.21,1.39.46,1.77a.48.48,0,0,1-.65.56l-1.69-.72-1.55,1a.48.48,0,0,1-.73-.45l.17-1.83-1.41-1.17a.47.47,0,0,1,.2-.83l1.78-.4.68-1.71A.47.47,0,0,1,153.85,39.6Z" style="fill:#e0e0e0"></path></g><g id="freepik--Planet--inject-152"><g id="freepik--planet--inject-152"><g id="freepik--Rings--inject-152"><g style="opacity:0.6000000000000001"><path d="M443.52,76.73a22.09,22.09,0,1,1,22.09-22.09A22.12,22.12,0,0,1,443.52,76.73Zm0-43.66A21.58,21.58,0,1,0,465.1,54.64,21.6,21.6,0,0,0,443.52,33.07Z" style="fill:#008672"></path></g><g style="opacity:0.5"><path d="M443.52,79.8a25.16,25.16,0,1,1,25.16-25.16A25.19,25.19,0,0,1,443.52,79.8Zm0-49.77a24.62,24.62,0,1,0,24.62,24.61A24.64,24.64,0,0,0,443.52,30Z" style="fill:#008672"></path></g><g style="opacity:0.30000000000000004"><path d="M443.52,83.05a28.41,28.41,0,1,1,28.41-28.41A28.43,28.43,0,0,1,443.52,83.05Zm0-56.24a27.84,27.84,0,1,0,27.84,27.83A27.86,27.86,0,0,0,443.52,26.81Z" style="fill:#008672"></path></g></g><g id="freepik--planet--inject-152"><circle cx="443.52" cy="54.64" r="18.73" transform="translate(262.7 463.3) rotate(-73.15)" style="fill:#008672"></circle><circle cx="443.52" cy="54.64" r="18.73" transform="translate(262.7 463.3) rotate(-73.15)" style="fill:#fff;opacity:0.7000000000000001"></circle><g style="opacity:0.2"><path d="M441.43,43.41c-.14-.33-.28-.64-.42-.94a58.72,58.72,0,0,0-3.31-5.62,18,18,0,0,0-3.27,1.43C435.57,40,437,41.62,438,43.36a22.65,22.65,0,0,1,1.67,4.12,6.74,6.74,0,0,0,.8,1.72,2.35,2.35,0,0,0,1.54,1,.51.51,0,0,0,.3,0c.22-.09.28-.38.3-.62A13.77,13.77,0,0,0,441.43,43.41Z" style="fill:#008672"></path><path d="M457.24,67.38c-3.17-3.08-9.07-8.85-11.56-11.45-1.88-2-4.48-2.87-6.38-4.76-1.3-1.3-1.81-3.16-2.32-4.93-.29-1-.83-4.11-2.31-3.76-.05.51.26,1.69-.29,2s-1-.69-1.14-1-1.9-3.1-1.87-3.12a17.59,17.59,0,0,0-1.53,1.46c1.65,3,4.3,7.92,4.9,8.92.89,1.49,0,3.13-1.11,1.54-.68-1-3.74-4.88-5.95-7.67a19.49,19.49,0,0,0-1.78,3.64c1.74,2.55,3.72,5.68,6.55,7.13a3.42,3.42,0,0,0,3.06.17,9.6,9.6,0,0,1,1.85-1.08,3.22,3.22,0,0,1,2.46.87,55.59,55.59,0,0,1,4.36,3.46,11.87,11.87,0,0,1,2,1.84,1.38,1.38,0,0,1-.13,1.68c0,.17-.68.14-.78.12a2.34,2.34,0,0,1-.68-.4c-.63-.42-1.29-.79-1.93-1.18s-1.13-.61-1.62-.31a1.79,1.79,0,0,0,.64,1.36,28.51,28.51,0,0,0,4.13,3.71,3.12,3.12,0,0,0,.92.52,1.14,1.14,0,0,0,1-.12c.29-.22.43-.61.75-.79a1,1,0,0,1,1,0c.67.39,1.19,1.13,1.83,1.59a28.24,28.24,0,0,1,3.09,3A18.58,18.58,0,0,0,457.24,67.38Z" style="fill:#008672"></path><path d="M443.52,73.37a18.68,18.68,0,0,0,6.83-1.29c-3.08-2.78-8-7.12-9.44-8.07-1.3-.84-2.21.47-3,1.36a2.84,2.84,0,0,1-1.41,1.11,1.63,1.63,0,0,1-1.75-1.57,2.72,2.72,0,0,1,.75-1.77,5.63,5.63,0,0,0,1.23-1.58c.35-1-.23-2-.78-2.93-.23-.35-.49-.74-.9-.83-.57-.12-1.06.37-1.47.78a8.82,8.82,0,0,1-1.61,1.3,2.28,2.28,0,0,1-1.22.43,2.57,2.57,0,0,1-1.3-.59A11,11,0,0,1,427,57.37l-1.14-1.48c-.21-.28-1.06-1.1-1.06-1.43v.18A18.72,18.72,0,0,0,443.52,73.37Z" style="fill:#008672"></path><path d="M451.17,37.55c-.09,1,.34,2.21,1.79,4.13.75,1,1.54,2,2.34,3,.62.75,1.74,1.65,1.73,2.71A2.51,2.51,0,0,1,456,49.1a10.19,10.19,0,0,1-1.51,1c-.44.24-1,.53-1,1s.44.78.83,1q2.26,1.32,4.6,2.52A9.39,9.39,0,0,1,461,55.8c.4.36.64.87,1.06,1.21a11.72,11.72,0,0,0,.17-2.37A18.73,18.73,0,0,0,451.17,37.55Z" style="fill:#008672"></path><path d="M451.06,48.76a8.23,8.23,0,0,1,.74-.46c.55-.3,1.2-.63,1.34-1.24.2-.83-.63-1.5-1.36-2l-2.26-1.38a4.75,4.75,0,0,1-1-.76,4.29,4.29,0,0,1-.67-1.18,28.51,28.51,0,0,1-1.16-3.37c-.11-.42-.35-2.3-1-2.37a16.89,16.89,0,0,0-2.15-.13,17.69,17.69,0,0,0-2.31.15c.37,0,1.24,2.26,1.36,2.6A32.58,32.58,0,0,1,444,43.24c.28,1.52,2.18,2.29,3.37,3.12a1.13,1.13,0,0,1,.43.44,1,1,0,0,1-.11.72,20.65,20.65,0,0,1-1.26,2,3.06,3.06,0,0,0-.53,2.23,3.82,3.82,0,0,0,1.25,1.76c4,3.83,8.22,7.51,12,11.52a18.63,18.63,0,0,0,2-3.88c.14-.37-2-2.13-2.33-2.36-1.28-1-2.73-1.86-4-2.9L451.14,53a3.36,3.36,0,0,1-1.29-1.56,2.19,2.19,0,0,1,.42-1.86A3.61,3.61,0,0,1,451.06,48.76Z" style="fill:#008672"></path></g><g style="opacity:0.2"><path d="M445.62,65.88c.13.32.27.64.42.94a56.7,56.7,0,0,0,3.31,5.62A18.31,18.31,0,0,0,452.62,71c-1.14-1.69-2.57-3.34-3.58-5.09a23,23,0,0,1-1.68-4.11,6.39,6.39,0,0,0-.79-1.72,2.42,2.42,0,0,0-1.54-1,.61.61,0,0,0-.3,0c-.23.09-.29.37-.31.62A13.81,13.81,0,0,0,445.62,65.88Z" style="fill:#fff"></path><path d="M429.81,41.9c3.17,3.09,9.07,8.85,11.56,11.46,1.88,2,4.48,2.87,6.37,4.76,1.3,1.29,1.81,3.16,2.33,4.92.29,1,.82,4.12,2.31,3.77.05-.51-.26-1.69.29-2s1,.69,1.14,1,1.9,3.1,1.87,3.12a19.23,19.23,0,0,0,1.53-1.46c-1.65-3-4.3-7.92-4.9-8.93-.89-1.48,0-3.13,1.1-1.53.69,1,3.74,4.88,5.95,7.67A18.6,18.6,0,0,0,461.14,61c-1.73-2.55-3.72-5.68-6.55-7.13a3.45,3.45,0,0,0-3.06-.18c-.64.33-1.14.92-1.84,1.08a3.16,3.16,0,0,1-2.46-.86c-1.51-1.09-3-2.23-4.37-3.46a11.8,11.8,0,0,1-2-1.84,1.37,1.37,0,0,1,.13-1.68c0-.17.68-.15.78-.12a2.48,2.48,0,0,1,.68.4c.62.42,1.29.79,1.93,1.18.49.3,1.13.61,1.62.3a1.79,1.79,0,0,0-.64-1.35,27.51,27.51,0,0,0-4.14-3.71,3,3,0,0,0-.92-.52,1.12,1.12,0,0,0-1,.12c-.3.22-.44.61-.75.79a1,1,0,0,1-1,0c-.67-.39-1.19-1.13-1.83-1.59a28.32,28.32,0,0,1-3.09-3A18.64,18.64,0,0,0,429.81,41.9Z" style="fill:#fff"></path><path d="M443.52,35.92a18.59,18.59,0,0,0-6.82,1.29c3.08,2.77,8,7.12,9.44,8.07,1.3.84,2.2-.47,3-1.37a2.92,2.92,0,0,1,1.42-1.11,1.63,1.63,0,0,1,1.74,1.57,2.7,2.7,0,0,1-.75,1.78,5.41,5.41,0,0,0-1.22,1.58,3.53,3.53,0,0,0,.78,2.92,1.61,1.61,0,0,0,.9.84c.56.12,1-.37,1.46-.78a9.24,9.24,0,0,1,1.62-1.3,2.2,2.2,0,0,1,1.22-.43,2.5,2.5,0,0,1,1.29.59,10.87,10.87,0,0,1,2.48,2.35c.38.49.76,1,1.13,1.48.21.28,1.06,1.1,1.06,1.43,0-.06,0-.12,0-.19A18.73,18.73,0,0,0,443.52,35.92Z" style="fill:#fff"></path><path d="M435.88,71.74c.09-1-.35-2.22-1.79-4.13-.76-1-1.55-2-2.34-3-.63-.76-1.75-1.66-1.73-2.72a2.44,2.44,0,0,1,1.08-1.74,9,9,0,0,1,1.51-1c.44-.24,1-.54,1-1s-.44-.78-.84-1c-1.5-.88-3-1.72-4.59-2.52A9.72,9.72,0,0,1,426,53.48c-.39-.35-.63-.86-1-1.21a11.72,11.72,0,0,0-.17,2.37A18.74,18.74,0,0,0,435.88,71.74Z" style="fill:#fff"></path><path d="M436,60.53a5.51,5.51,0,0,1-.73.45c-.56.31-1.2.64-1.35,1.25-.19.83.64,1.5,1.36,1.94l2.27,1.38a4.8,4.8,0,0,1,1,.77,4,4,0,0,1,.66,1.18,26.27,26.27,0,0,1,1.16,3.37c.12.42.36,2.3,1,2.37a19.24,19.24,0,0,0,2.15.13,17.73,17.73,0,0,0,2.32-.15c-.38,0-1.24-2.26-1.36-2.6a30.12,30.12,0,0,1-1.39-4.57c-.28-1.53-2.18-2.29-3.38-3.12a1,1,0,0,1-.42-.45.94.94,0,0,1,.1-.71,22.92,22.92,0,0,1,1.27-2,3.07,3.07,0,0,0,.53-2.24,3.92,3.92,0,0,0-1.25-1.75c-4-3.83-8.22-7.51-12-11.52a18.66,18.66,0,0,0-2,3.88c-.13.37,2.05,2.13,2.34,2.36,1.28,1,2.73,1.85,4,2.9l3.6,2.91a3.56,3.56,0,0,1,1.29,1.57,2.2,2.2,0,0,1-.42,1.86A3.65,3.65,0,0,1,436,60.53Z" style="fill:#fff"></path></g><path d="M462,57.46c-1.38,6.92-13.87,13.27-23.88,9C427.52,61.89,425.52,47.5,430.73,41h0A18.73,18.73,0,1,0,462,57.46Z" style="opacity:0.05"></path><path d="M451.7,42.75a4.35,4.35,0,1,1-4.34-4.34A4.34,4.34,0,0,1,451.7,42.75Z" style="fill:#fff;opacity:0.6000000000000001"></path><path d="M454.81,47.42a2,2,0,1,1-2-2A2,2,0,0,1,454.81,47.42Z" style="fill:#fff;opacity:0.6000000000000001"></path><path d="M424.8,54.64a18.72,18.72,0,0,0,34.65,9.85c-.42.66-5.71,9-18.81,6.6C427,68.59,424.8,54.65,425,51.71A18.89,18.89,0,0,0,424.8,54.64Z" style="opacity:0.05"></path></g></g></g><g id="freepik--Character--inject-152"><g id="freepik--Books--inject-152"><g id="freepik--Book--inject-152"><path d="M92.43,395.52l5.83-3.11L93,391.14A4,4,0,0,0,92.43,395.52Z" style="fill:#008672"></path><path d="M92.43,395.52l5.83-3.11L93,391.14A4,4,0,0,0,92.43,395.52Z" style="opacity:0.5"></path><path d="M246.87,473.3a13.11,13.11,0,0,1-11.86,0l-133.1-76.85L301.16,283.27l4.65-2.69,133.1,75c3.27,1.89,3.27,5,0,6.84Z" style="fill:#008672"></path><path d="M196.89,330l-46.41,26.71-30-17.35-34.95,20.2v23.32c0,3.05,3.42,7.41,4.67,6.69a34.48,34.48,0,0,1,6.68,2.37c3.94,1.81,9.64,7.14,9.64,7.14l106.66-59.71Z" style="fill:#008672"></path><path d="M196.89,330l-46.41,26.71-30-17.35-34.95,20.2v23.32c0,3.05,3.42,7.41,4.67,6.69a34.48,34.48,0,0,1,6.68,2.37c3.94,1.81,9.64,7.14,9.64,7.14l106.66-59.71Z" style="opacity:0.15"></path><path d="M104.66,362.36v25.32l-.41-.25a12,12,0,0,0-5.69-1.78,6,6,0,0,0-3.74.88V356.68Z" style="fill:#37474f"></path><path d="M111.18,396.38a7.84,7.84,0,0,0-1.67-4.32,14.44,14.44,0,0,0-1.64-1.88l-.56-.53-.73-.62-.61-.46c-.43-.31-.88-.61-1.31-.88V362.48l6.5,3.77v-.13Z" style="fill:#e0e0e0"></path><path d="M85.48,382.88c0,3.05,3.42,7.41,4.67,6.69h0l4.67-3V367.29l-4.68-8.05-2.55-.91-2.11,1.23Z" style="opacity:0.4"></path><path d="M240.94,441.05v28.89A7.87,7.87,0,0,1,237,469l-14.61-8.42-111.21-64.2,0-30.27Z" style="fill:#e0e0e0"></path><path d="M435.58,332.53v21.81a8.79,8.79,0,0,1-3.95,6.85L259.47,460.58,244.89,469a7.88,7.88,0,0,1-3.95.94V444.31Z" style="fill:#f5f5f5"></path><path d="M301.16,245.73l-199.25,115v2.67c0,1.48-2.07,2-4.63.54s-4.65-3.33-4.65-5.88l-.26-2.54,203-117.19.82-.48a2.78,2.78,0,0,1,.34,1.23v1.23C296.55,241.85,298.6,244.22,301.16,245.73Z" style="fill:#008672"></path><path d="M301.16,245.73l-199.25,115v2.67c0,1.48-2.07,2-4.63.54s-4.65-3.33-4.65-5.88l-.26-2.54,203-117.19.82-.48a2.78,2.78,0,0,1,.34,1.23v1.23C296.55,241.85,298.6,244.22,301.16,245.73Z" style="opacity:0.1"></path><path d="M235,437.63,104.86,362.48c-1.65-.87-3.16-1.56-3.8-1.23l.85-.47,199.25-115,2.33-1.34c1.28-.75,4.09-.33,6.28.93l129.14,74.56c3.27,1.9,3.27,5,0,6.85l-192,110.9A13.11,13.11,0,0,1,235,437.63Z" style="fill:#008672"></path><path d="M296.21,237.9l-.82.48-203,117.19a1.47,1.47,0,0,0-.43-.55l-.68-.38-1.46-.85L88,352.74a1.85,1.85,0,0,0-2.3.21.62.62,0,0,0-.23.2,4.33,4.33,0,0,0-.62.85,6.27,6.27,0,0,0-.52,1.14,10.69,10.69,0,0,0-.41,1.32c-.11.5-.21,1-.3,1.56a5.51,5.51,0,0,0-.11.93c0,.25,0,.48-.07.75-.05.57-.07,1.17-.07,1.78v-5.7c0-3.15,2.67-7.23,5.94-9.13L281.35,235.76c3.29-1.9,8-2.22,10.57-.76l2.42,1.42.09,0c.16.12.57.35,1,.6,0,0,0,0,0,0A2,2,0,0,1,296.21,237.9Z" style="fill:#008672"></path><path d="M235,473.29l-8-4.65-120.5-69.57a7.81,7.81,0,0,0-1.65-4.32,17.48,17.48,0,0,0-5.27-4.63,11.92,11.92,0,0,0-5.68-1.78,6.06,6.06,0,0,0-3.74,1.23c-.78-1.05-2.21-5.08-2.21-10H83.36c0,6.3,2.08,12.62,4.63,14.08L90.3,395c1.3.75,2.33.8,2.33.09v-1.23c0-1.37,2.07-1.3,4.65.18s4.63,3.79,4.63,5.16v1.23c0,.71,1.78,2.28,4,3.54l116.53,67.28L235,478.56s0,0,0,0a12.49,12.49,0,0,0,5.91,1.39v-5.27A12,12,0,0,1,235,473.29Z" style="fill:#008672"></path><path d="M235,473.29l-8-4.65-120.5-69.57a7.81,7.81,0,0,0-1.65-4.32,17.48,17.48,0,0,0-5.27-4.63,11.92,11.92,0,0,0-5.68-1.78,6.06,6.06,0,0,0-3.74,1.23c-.78-1.05-2.21-5.08-2.21-10H83.36c0,6.3,2.08,12.62,4.63,14.08L90.3,395c1.3.75,2.33.8,2.33.09v-1.23c0-1.37,2.07-1.3,4.65.18s4.63,3.79,4.63,5.16v1.23c0,.71,1.78,2.28,4,3.54l116.53,67.28L235,478.56s0,0,0,0a12.49,12.49,0,0,0,5.91,1.39v-5.27A12,12,0,0,1,235,473.29Z" style="opacity:0.30000000000000004"></path><path d="M235.06,437.65l-.05,0L227,433l-92.57-53.41-29.55-17.07c-2.1-1.23-3.81-1.67-3.93-1a.1.1,0,0,0,0,.07v1.34c0,1.49-2.08,1.49-4.63,0s-3.61-3.21-3.65-4.65v-1.46a2.15,2.15,0,0,0-.69-1.74l-.68-.38-1.46-.85L88,352.74a1.85,1.85,0,0,0-2.3.21.62.62,0,0,0-.23.2,2.46,2.46,0,0,0-.41.55,1.34,1.34,0,0,0-.21.3,6.27,6.27,0,0,0-.52,1.14,10.69,10.69,0,0,0-.41,1.32c-.11.5-.21,1-.3,1.56a5.51,5.51,0,0,0-.11.93c0,.25,0,.48-.07.75-.05.57-.07,1.17-.07,1.78V379.6h4.57V361.48c0-.48,0-1,0-1.41l.12-1.14a.25.25,0,0,1,0-.12c.41,3.63,3.88,6.87,6.89,8.58a11.46,11.46,0,0,0,5.57,1.74,6.1,6.1,0,0,0,4.08-1.51l.41.23.8.48,116.53,67.29L235,442.9a0,0,0,0,1,0,0l.09.05a12.39,12.39,0,0,0,5.82,1.34v-5.26A12.22,12.22,0,0,1,235.06,437.65Z" style="fill:#008672"></path><path d="M235.06,437.65l-.05,0L227,433l-92.57-53.41-29.55-17.07c-2.1-1.23-3.81-1.67-3.93-1a.1.1,0,0,0,0,.07v1.34c0,1.49-2.08,1.49-4.63,0s-3.61-3.21-3.65-4.65v-1.46a2.15,2.15,0,0,0-.69-1.74l-.68-.38-1.46-.85L88,352.74a1.85,1.85,0,0,0-2.3.21.62.62,0,0,0-.23.2,2.46,2.46,0,0,0-.41.55,1.34,1.34,0,0,0-.21.3,6.27,6.27,0,0,0-.52,1.14,10.69,10.69,0,0,0-.41,1.32c-.11.5-.21,1-.3,1.56a5.51,5.51,0,0,0-.11.93c0,.25,0,.48-.07.75-.05.57-.07,1.17-.07,1.78V379.6h4.57V361.48c0-.48,0-1,0-1.41l.12-1.14a.25.25,0,0,1,0-.12c.41,3.63,3.88,6.87,6.89,8.58a11.46,11.46,0,0,0,5.57,1.74,6.1,6.1,0,0,0,4.08-1.51l.41.23.8.48,116.53,67.29L235,442.9a0,0,0,0,1,0,0l.09.05a12.39,12.39,0,0,0,5.82,1.34v-5.26A12.22,12.22,0,0,1,235.06,437.65Z" style="opacity:0.30000000000000004"></path><path d="M441.35,323.24v5.37A4.06,4.06,0,0,1,439,332l-.09,0L259.47,435.62l-12.59,7.28v0s0,0,0,0a12.32,12.32,0,0,1-5.91,1.4v-5.27a12,12,0,0,0,5.94-1.42l8-4.63h0l184-106.27C440.65,325.72,441.35,324.54,441.35,323.24Z" style="fill:#008672"></path><path d="M441.35,323.24v5.37A4.06,4.06,0,0,1,439,332l-.09,0L259.47,435.62l-12.59,7.28v0s0,0,0,0a12.32,12.32,0,0,1-5.91,1.4v-5.27a12,12,0,0,0,5.94-1.42l8-4.63h0l184-106.27C440.65,325.72,441.35,324.54,441.35,323.24Z" style="opacity:0.2"></path><path d="M441.35,358.91v5.36a4.09,4.09,0,0,1-2.35,3.38l-.09,0L259.47,471.28l-12.59,7.28v0s0,0,0,0a12.43,12.43,0,0,1-5.91,1.39v-5.27a12,12,0,0,0,5.94-1.42l8-4.63h0l184-106.26C440.65,361.39,441.35,360.2,441.35,358.91Z" style="fill:#008672"></path><path d="M441.35,358.91v5.36a4.09,4.09,0,0,1-2.35,3.38l-.09,0L259.47,471.28l-12.59,7.28v0s0,0,0,0a12.43,12.43,0,0,1-5.91,1.39v-5.27a12,12,0,0,0,5.94-1.42l8-4.63h0l184-106.26C440.65,361.39,441.35,360.2,441.35,358.91Z" style="opacity:0.2"></path></g><g id="freepik--book--inject-152"><polygon points="96.42 344.52 231.61 421.98 425.06 311.04 287.19 235.66 96.42 344.52" style="fill:#008672"></polygon><polygon points="96.42 344.52 231.61 421.98 425.06 311.04 287.19 235.66 96.42 344.52" style="opacity:0.6000000000000001"></polygon><path d="M233,416.55,102.28,341.16c3.16-9,2.92-23.25-.65-35.18l130,74.66S233.91,392,233,416.55Z" style="fill:#f5f5f5"></path><path d="M225.44,370.85c6.41,3.68,11.61,12.63,11.62,20V418c0,7.36-5.19,10.35-11.61,6.67l-129-74.39,0-5.79,127.42,73.05c3.85,2.21,7,.42,7-4l-.11-25.48a15.3,15.3,0,0,0-7-12L96.44,303v-6.56Z" style="fill:#008672"></path><path d="M225.44,370.85c6.41,3.68,11.61,12.63,11.62,20V418c0,7.36-5.19,10.35-11.61,6.67l-129-74.39,0-5.79,127.42,73.05c3.85,2.21,7,.42,7-4l-.11-25.48a15.3,15.3,0,0,0-7-12L96.44,303v-6.56Z" style="opacity:0.5"></path><path d="M96.44,296.47,289.89,185.53l129,74.39c6.41,3.67,11.62,12.63,11.62,20V307.1c0,3.67-1.29,6.25-3.41,7.46l-193.45,111c2.11-1.22,3.4-3.8,3.41-7.47l0-27.2c0-7.36-5.21-16.32-11.61-20Z" style="fill:#008672"></path><path d="M96.44,296.47,289.89,185.53l129,74.39c6.41,3.67,11.62,12.63,11.62,20V307.1c0,3.67-1.29,6.25-3.41,7.46l-193.45,111c2.11-1.22,3.4-3.8,3.41-7.47l0-27.2c0-7.36-5.21-16.32-11.61-20Z" style="opacity:0.1"></path><path d="M233.66,379.46a23.54,23.54,0,0,1,3.41,11.38l0,27.2c0,3.67-1.3,6.25-3.41,7.47L427.09,314.56c2.12-1.21,3.4-3.79,3.41-7.46V279.91a23.43,23.43,0,0,0-3.41-11.38Z" style="fill:#008672"></path><path d="M233.66,379.46a23.54,23.54,0,0,1,3.41,11.38l0,27.2c0,3.67-1.3,6.25-3.41,7.47L427.09,314.56c2.12-1.21,3.4-3.79,3.41-7.46V279.91a23.43,23.43,0,0,0-3.41-11.38Z" style="opacity:0.30000000000000004"></path><path d="M399.81,284c3.77,16.35,3.71,34.31,0,46.3l-9.61,5.55c3.71-12,3.76-29.95,0-46.3Z" style="fill:#fafafa"></path><path d="M275.86,355.56c3.77,16.34,3.71,34.3,0,46.29l-9.61,5.55c3.71-12,3.76-29.95,0-46.29Z" style="fill:#fafafa"></path></g></g><g id="freepik--Plug--inject-152"><path d="M160,408.17a2.76,2.76,0,0,1,2.78.28,8.68,8.68,0,0,1,3.92,6.79,2.77,2.77,0,0,1-1.16,2.55l-15.68,9-5.53-9.62Z" style="fill:#455a64"></path><path d="M166.27,412.86a7.13,7.13,0,0,1,.47,2.38,2.77,2.77,0,0,1-1.16,2.55l-15.68,9-2-3.4Z" style="opacity:0.1"></path><path d="M151.05,424.3a8.65,8.65,0,0,0-3.92-6.79,2.39,2.39,0,0,0-3.92,2.26,8.65,8.65,0,0,0,3.92,6.79,2.39,2.39,0,0,0,3.92-2.26Z" style="fill:#263238"></path><path d="M144.8,418.68a2.06,2.06,0,0,1,2.09.21,6.53,6.53,0,0,1,3,5.12,2.08,2.08,0,0,1-.88,1.92l-6.63,3.83-4.17-7.25Z" style="fill:#37474f"></path><path d="M149.49,422.21a5.39,5.39,0,0,1,.36,1.8,2.08,2.08,0,0,1-.88,1.92l-6.63,3.83-1.47-2.56Z" style="opacity:0.1"></path><path d="M143.21,427.85a6.53,6.53,0,0,0-3-5.12,1.8,1.8,0,0,0-3,1.7,6.57,6.57,0,0,0,3,5.13,1.81,1.81,0,0,0,3-1.71Z" style="fill:#263238"></path><path d="M140.6,426.2a.59.59,0,0,0-.8-.22L138,427a5.08,5.08,0,0,0-2.52,4.37v4.9a2.67,2.67,0,0,1-4,2.31L55.84,395a2.64,2.64,0,0,1,0-4.56l27.52-15.9v-1.36l-28.1,16.25a3.81,3.81,0,0,0,0,6.59l75.59,43.64a3.8,3.8,0,0,0,3.84,0,3.82,3.82,0,0,0,1.92-3.33v-4.9a3.87,3.87,0,0,1,1.94-3.35l1.83-1.06A.59.59,0,0,0,140.6,426.2Z" style="fill:#455a64"></path></g><g id="freepik--character--inject-152"><path id="freepik--shadow--inject-152" d="M332.55,254.63c-31.12-18-81.58-18-112.7,0-21,12.1-27.78,29.26-20.52,44.66l-53.73-31-1.17.67,55.88,32.25c3.74,6.77,10.24,13.13,19.54,18.5,31.12,18,81.57,18,112.7,0S363.67,272.6,332.55,254.63Z" style="opacity:0.2"></path><g id="freepik--Bottom--inject-152"><path d="M335.52,318.7l10.92-26.15,31,12.25c-14.19,16.28-29.34,35.93-32.52,42.82,0,0-16.4-2.37-19.54-10.39S331.38,321.75,335.52,318.7Z" style="fill:#ffa8a7"></path><path d="M318.11,330a13.35,13.35,0,0,0-3.28,4.16c-.93,1.62-.05,9.06-.78,12.59s-1.43,4.52-2.77,9c-1.47,4.95-4.54,9.59.21,21.67,4.81,12.24,11.32,17.51,16.73,20.15a13.57,13.57,0,0,0,6.36,1.05s6.6-3.07,5.26-7S318.11,330,318.11,330Z" style="fill:#263238"></path><path d="M348.9,341.31c-.09,1.29-1.73,3.38-2.38,4.47-2.17,3.68-2.94,8.49-3.48,12.68-2.55,19.86,6,29.23-4,37.35-2.91,2.15-9.28,2.09-19.81-9.53-5.38-5.93-9.14-18.68-7.66-24.68s3.82-10,4.72-14.63-.36-13,1.84-17c1.29-2.39,3.55-4.16,5.72-5.71,1.78-1.27,5.75-3.07,7.58-4.3s2.78-2.53,4.11-1.24l-2,2.88c-3.08,5-2.07,5.63-1.8,8.16s-.39,5.49-.68,8.15c2.21-3.26,3-6,5.71-5.75,2.53.26,3,.12,7.1,3.42S349,340.16,348.9,341.31Z" style="fill:#455a64"></path><path d="M319.21,386.28c-5.38-5.93-9.14-18.68-7.66-24.68a52.8,52.8,0,0,1,1.83-5.85c-.05.4-.14.81-.17,1.15q-.09,1.16-.12,2.31c-.06,3,.18,6.16,1.63,8.81,1.29,2.35,4.3,8.28,7.6,8.17,1.87-.06,3.31-2,3.87-4.14.24-.9.57-3.31.57-3.31a29.12,29.12,0,0,1,8.81,2.86c5,2.8,4.89,3.51,4.89,3.51a12.83,12.83,0,0,0,.15,4.21,10.48,10.48,0,0,0,2.09,4,6.15,6.15,0,0,0,1.29.88c.14,4.53-.78,8.17-5,11.57C336.11,398,329.74,397.9,319.21,386.28Z" style="fill:#37474f"></path><path d="M343,358.46a66.64,66.64,0,0,0-.06,15.73c-1.42,5.14-3,5.11-3.42,2.53s2.25-13.61,4.17-22.7C343.44,355.53,343.23,357,343,358.46Z" style="fill:#37474f"></path><path d="M328.81,328a11,11,0,0,1,1.38-7.3c.46-.26.88-.51,1.22-.74,2-1.32,2.78-2.53,4.11-1.24l-2,2.88c-3.08,5-2.07,5.63-1.8,8.16s-.39,5.49-.68,8.15c-1.36,8.64-3,11.61-3.32,19.71s1.66,13.36.56,13.9-3.45-.2-4.34-6.6,1.14-17.42,2.76-22.69S329.47,331.38,328.81,328Z" style="fill:#37474f"></path><path d="M326.23,369.34a.77.77,0,0,0,.42.19c5.72.75,8.83,1.94,13.39,6.57a.8.8,0,0,0,1.14-1.13c-4.82-4.89-8.24-6.24-14.32-7a.82.82,0,0,0-.9.7A.77.77,0,0,0,326.23,369.34Z" style="fill:#ebebeb"></path><path d="M326.75,362.57a.83.83,0,0,0,.41.2c5.93.92,9.28,2.33,14.12,7.2a.81.81,0,0,0,1.17,0,.82.82,0,0,0,0-1.16c-5.1-5.13-8.75-6.7-15-7.67a.82.82,0,0,0-.94.69A.81.81,0,0,0,326.75,362.57Z" style="fill:#ebebeb"></path><path d="M326.06,355.22a.89.89,0,0,0,.46.21c6.53,1,10.45,2.73,15.78,8.1a.91.91,0,0,0,1.29-1.28c-5.61-5.65-9.87-7.54-16.8-8.61a.91.91,0,0,0-.73,1.58Z" style="fill:#ebebeb"></path><path d="M326.66,348.84a.82.82,0,0,0,.45.21c6.41,1,10.2,2.64,15.43,7.91a.91.91,0,0,0,1.26,0,.9.9,0,0,0,0-1.26c-5.5-5.53-9.64-7.36-16.43-8.41a.89.89,0,0,0-1,.75A.87.87,0,0,0,326.66,348.84Z" style="fill:#ebebeb"></path><path d="M328.51,342.54a.85.85,0,0,0,.45.21c6.41,1,10.2,2.63,15.44,7.91a.9.9,0,0,0,1.26,0,.89.89,0,0,0,0-1.26c-5.5-5.53-9.63-7.36-16.42-8.41a.9.9,0,0,0-1,.75A.87.87,0,0,0,328.51,342.54Z" style="fill:#ebebeb"></path><path d="M300.06,229.14s66.51-7.87,92.54-7.7c26.58.16,29,20.12,22.39,32.33C402.26,277.17,361.14,325,361.14,325S344.6,320,340,307.12L348.66,284l-51.51,7.1-9.37-6.74Z" style="fill:#008672"></path><path d="M300.06,229.14s66.51-7.87,92.54-7.7c26.58.16,29,20.12,22.39,32.33C402.26,277.17,361.14,325,361.14,325S344.6,320,340,307.12L348.66,284l-51.51,7.1-9.37-6.74Z" style="fill:#fff;opacity:0.55"></path><path d="M366.38,302.07c-5.71-7.29-9.51-9-19.8-12.54L340,307.12C344.6,320,361.14,325,361.14,325s4.74-5.52,11.49-13.71A101.84,101.84,0,0,0,366.38,302.07Z" style="fill:#008672;opacity:0.5"></path><path d="M352.22,262.09c-3.33,5-6.23,9.43-8.68,13.68s-10.14,6.33-17.91,4.74c-9.67-2-20.63-6.8-27-9.55,5.49-10.74,3-23.81,3-23.81C300,254.09,297.15,264.64,294,269L290.29,273l-2.51,11.28,9.37,6.74,51.51-7.1c9.15-21.79,11.75-31.38,23.06-35.85C371.72,248.11,362.08,247.39,352.22,262.09Z" style="fill:#008672;opacity:0.5"></path><path d="M388.76,392.61l-23.29-24.88,22.89-19.83c10.71,16.59,21.16,32.45,27.95,38.55,0,0-4.51,15.2-13.08,16.08S390.6,397.41,388.76,392.61Z" style="fill:#ffa8a7"></path><path d="M394.27,407.58a13.4,13.4,0,0,0,3.14,4.27c1.31,1.32,8.71,2.46,11.92,4.11s4,2.59,7.92,5.06c4.37,2.75,8,6.94,20.93,5.59,13.08-1.36,19.91-6.23,23.89-10.74a13.56,13.56,0,0,0,2.71-5.85s-1.19-7.17-5.35-6.93S394.27,407.58,394.27,407.58Z" style="fill:#263238"></path><path d="M413.44,380.94c1.22.43,2.8,2.56,3.68,3.48,3,3.08,7.39,5.1,11.29,6.74,18.46,7.76,29.76,2.06,34.92,13.85,1.29,3.38-.47,9.5-14.47,16.55-7.16,3.6-20.45,3.82-25.84.79s-8.64-6.36-12.83-8.46-12.59-3.11-15.92-6.31c-1.95-1.89-3.06-4.54-4-7-.75-2.06-2.89-9.14-2.89-9.14,4,4.3,7.79,2.59,10.29,3s5.19,1.85,7.68,2.83c-2.55-3-5-4.51-4-7,.92-2.36.92-2.86,5.19-5.92S412.36,380.55,413.44,380.94Z" style="fill:#455a64"></path><path d="M448.86,421.56c-7.16,3.6-20.45,3.82-25.84.79a56.26,56.26,0,0,1-5.15-3.33c.37.16.75.35,1.07.47.72.27,1.45.51,2.19.74,2.84.85,6,1.46,8.93.77,2.61-.61,9.12-1.92,9.9-5.14.44-1.81-1-3.72-2.95-4.83-.81-.47-3.05-1.43-3.05-1.43a29.06,29.06,0,0,1,5.11-7.73c4-4.08,4.7-3.77,4.7-3.77a12.46,12.46,0,0,0,4.09,1,10.27,10.27,0,0,0,4.45-.93,7,7,0,0,0,1.2-1c4.4,1.07,7.65,2.93,9.82,7.87C464.62,408.39,462.86,414.51,448.86,421.56Z" style="fill:#37474f"></path><path d="M428.41,391.16a66.17,66.17,0,0,0,15.14,4.26c4.58,2.75,4.12,4.27,1.53,4s-12.52-5.8-20.77-10.07C425.69,390,427.08,390.6,428.41,391.16Z" style="fill:#37474f"></path><path d="M395.23,396.74c-2.46-.2-4.37,0-6.47-1.19-1.35-.67-2.1-3.74-2-5.11l2.18,2.31c3.7,1.64,6.3,1.24,8.8,1.65s5.19,1.85,7.68,2.83c8,3.63,10.4,6,18.1,8.46s13.33,2,13.55,3.18-1.11,3.27-7.52,2.42-16.48-5.75-21.12-8.72S398.68,397,395.23,396.74Z" style="fill:#37474f"></path><path d="M434.4,410.27a.72.72,0,0,0,.3-.36c2.24-5.31,4.22-8,9.9-11.14a.81.81,0,0,0,.31-1.09.79.79,0,0,0-1.09-.31c-6,3.33-8.21,6.27-10.6,11.92a.8.8,0,0,0,.43,1A.79.79,0,0,0,434.4,410.27Z" style="fill:#ebebeb"></path><path d="M428,408a.88.88,0,0,0,.3-.36c2.47-5.46,4.72-8.32,10.71-11.68a.8.8,0,0,0,.31-1.12.82.82,0,0,0-1.12-.32c-6.3,3.55-8.79,6.65-11.4,12.45a.83.83,0,0,0,.41,1.09A.85.85,0,0,0,428,408Z" style="fill:#ebebeb"></path><path d="M420.75,406.66a1,1,0,0,0,.33-.38c2.72-6,5.42-9.35,12-13a.91.91,0,1,0-.89-1.58c-6.93,3.9-9.9,7.49-12.78,13.88a.9.9,0,0,0,.45,1.2A.92.92,0,0,0,420.75,406.66Z" style="fill:#ebebeb"></path><path d="M414.76,404.38a.87.87,0,0,0,.33-.38c2.66-5.91,5.26-9.12,11.74-12.76a.9.9,0,0,0,.34-1.21.89.89,0,0,0-1.21-.34c-6.81,3.82-9.67,7.32-12.5,13.58a.89.89,0,0,0,.45,1.18A.88.88,0,0,0,414.76,404.38Z" style="fill:#ebebeb"></path><path d="M409.19,400.91a.92.92,0,0,0,.32-.38c2.67-5.91,5.26-9.12,11.74-12.76a.89.89,0,1,0-.87-1.55c-6.81,3.82-9.67,7.32-12.49,13.58a.88.88,0,0,0,.44,1.18A.9.9,0,0,0,409.19,400.91Z" style="fill:#ebebeb"></path><path d="M400.9,365.36c-5.84,10.47-21.59,19.17-21.59,19.17s-6.69-6.07-22.8-19.17c-11.35-9.24-20.71-18.38-27.39-29.54-19.25-3.85-55.28-7.54-89.68-21.42-24.64-9.94-34.17-27.78-32-59.34s95.91-26.29,95.91-26.29c.35,14.76-1.68,34-12,44.55,0,0,42,16,56.6,22,6.7,2.76,8.59,2.66,16.5,13.65C382.51,334.14,400.9,365.36,400.9,365.36Z" style="fill:#008672"></path><path d="M400.9,365.36c-5.84,10.47-21.59,19.17-21.59,19.17s-6.69-6.07-22.8-19.17c-11.35-9.24-20.71-18.38-27.39-29.54-19.25-3.85-55.28-7.54-89.68-21.42-24.64-9.94-34.17-27.78-32-59.34s95.91-26.29,95.91-26.29c.35,14.76-1.68,34-12,44.55,0,0,42,16,56.6,22,6.7,2.76,8.59,2.66,16.5,13.65C382.51,334.14,400.9,365.36,400.9,365.36Z" style="fill:#fff;opacity:0.55"></path><path d="M383.93,381.68l1.25-.85c-8.57-8.06-30.17-29-36.74-37.88-2.27-3.05-4-5.79-5.61-8.2-3.68-5.67-6.11-9.41-10.54-10.49-1-.23-3.23-.7-6.69-1.41-17.6-3.6-64.35-13.18-80.58-22-.49-.26-.94-.55-1.4-.83,5.56-5.52,4.94-16.06.69-22.54-4.55-6.94-8-20.74-5.5-27.47l-1.39-.51c-2.93,7.84,1.39,22.29,5.65,28.79,4,6.08,4.43,16.16-.78,20.95-15.55-9.73-23.39-26.74-22.69-49.43l-1.47,0c-.77,24.58,8.29,42.69,26.18,52.38,16.43,8.88,63.33,18.49,81,22.11,3.32.68,5.72,1.17,6.64,1.39,3.86.94,6.16,4.49,9.65,9.87,1.58,2.42,3.37,5.18,5.66,8.27C354.16,353.16,376,374.17,383.93,381.68Z" style="fill:#008672;opacity:0.5"></path></g><g id="freepik--Top--inject-152"><g id="freepik--Arm--inject-152"><path d="M272.42,129.63c9.64.2,14.36,1.75,21.29,9.17,8.15,8.72,21.53,26.49,34.23,41.14l36.45-14.08L374.27,184s-31.22,19.16-40,23.39c-8.55,4.12-11.61,6.39-21.63-2.08-6.47-5.48-24-22.28-24-22.28Z" style="fill:#ffa8a7"></path><g id="freepik--Coffee--inject-152"><g id="freepik--coffee--inject-152"><path d="M364,158.07c6-2.46,15.74-2.8,21.72-.75s6.09,5.68.28,8.13-15.55,2.78-21.72.75S358,160.52,364,158.07Z" style="fill:#263238"></path><path d="M358.86,150.84l31.29-1-1.1,36.94h0c-.1,1.35-1.31,2.71-3.66,3.82-5,2.36-13.43,2.65-18.77.65-2.51-.94-3.85-2.22-4-3.56h0Z" style="fill:#f0f0f0"></path><path d="M390.15,149.8l-.23,7.5a13.73,13.73,0,0,1-2.56,1.49c-6.67,3-17.82,3.42-24.92.86-.31-.11-.56-.23-.84-.35a16.32,16.32,0,0,1-2-1l-.74-7.42Z" style="fill:#e0e0e0"></path><path d="M356.92,152l-.19-5.63,3.64-.13a16.61,16.61,0,0,1,1.58-.79c6.9-3,18.06-3.43,24.92-.86a15.21,15.21,0,0,1,1.56.68l3.54-.12.19,5.64h0c.07,1.83-1.56,3.73-4.9,5.24-6.66,3-17.82,3.42-24.91.86C358.8,155.61,357,153.84,356.92,152Z" style="fill:#37474f"></path><path d="M361.8,141.11c6.9-3,18.06-3.43,24.92-.86s7,7.11.35,10.15-17.82,3.42-24.92.86S354.9,144.16,361.8,141.11Z" style="fill:#455a64"></path><path d="M359.92,144.9h0l1-4.69,8.94-.3a36.41,36.41,0,0,1,8.9-.31l8.69-.3,1.29,4.61h0c.62,1.67-.66,3.48-3.88,4.89-5.5,2.41-14.7,2.72-20.54.71C360.84,148.33,359.4,146.61,359.92,144.9Z" style="fill:#37474f"></path><path d="M364.67,137.11c5.23-2.11,13.68-2.4,18.87-.65s5.29,4.87.24,7-13.5,2.39-18.87.65S359.44,139.22,364.67,137.11Z" style="fill:#455a64"></path><path d="M362.66,140.68c0,.07.15.31.61.64a8.12,8.12,0,0,0,2.21,1,27.4,27.4,0,0,0,8.92,1,26.14,26.14,0,0,0,8.68-1.64,7.38,7.38,0,0,0,2.06-1.18c.42-.36.53-.62.53-.69s-.49-.92-2.71-1.67a26,26,0,0,0-8.78-1,27.3,27.3,0,0,0-8.83,1.64C363.18,139.69,362.66,140.51,362.66,140.68Z" style="fill:#263238"></path><path d="M363.27,141.32a8.12,8.12,0,0,0,2.21,1,27.4,27.4,0,0,0,8.92,1,26.14,26.14,0,0,0,8.68-1.64,7.38,7.38,0,0,0,2.06-1.18,7.41,7.41,0,0,0-2.14-1,25.92,25.92,0,0,0-8.77-1,27.3,27.3,0,0,0-8.83,1.64A8,8,0,0,0,363.27,141.32Z" style="fill:#37474f"></path><g style="opacity:0.5"><path d="M368.58,141.25a2.69,2.69,0,0,0-2.11-.32c-.38.23-.05.75.74,1.17a2.66,2.66,0,0,0,2.11.33C369.7,142.19,369.36,141.66,368.58,141.25Z"></path></g><path d="M389.83,174.78c.05,1.39-1.29,2.83-4,4-5.48,2.31-14.64,2.62-20.46.71-2.9-1-4.39-2.3-4.44-3.68l-1.36-13.5c0,1.47,1.63,2.89,4.72,3.91,6.17,2,15.9,1.7,21.72-.75,2.91-1.23,4.33-2.75,4.28-4.22Z" style="fill:#455a64"></path><path d="M380.31,175.91a18.59,18.59,0,0,0,1.14-2.33,6.79,6.79,0,0,1,3.43-3.24.43.43,0,0,1,.56.18,5.31,5.31,0,0,1-6.37,6.91c-.09,0-.12-.21-.05-.26A4.29,4.29,0,0,0,380.31,175.91Z" style="fill:#008672"></path><path d="M384,169.94a7.35,7.35,0,0,0-2.18,1.45,6.73,6.73,0,0,0-1.54,2.26,6.44,6.44,0,0,1-1.94,2.76.43.43,0,0,1-.61-.07c-1.1-1.54-.77-4,.89-5.74a4.8,4.8,0,0,1,5.41-1.44A.43.43,0,0,1,384,169.94Z" style="fill:#008672"></path></g></g><path d="M390,155l-.15,5s0,1.2-4.85,3.5a5.52,5.52,0,0,0-2.86,3.05,4.69,4.69,0,0,0-.39,1.88c.09.85.77,1.44.54,2.38a6.91,6.91,0,0,1-1,1.72,3.5,3.5,0,0,0,.56,4.11c.3.3.67.58.72,1s-.33.86-.62,1.23c-.93,1.17-1.15,3.21.42,3.94a5.38,5.38,0,0,0,2.46.3,1.88,1.88,0,0,0,.46,2.11c1.56,1.42,4.18-.16,5.5-1.12a14.32,14.32,0,0,0,4.16-5.39c1-2,2.27-3.76,2.07-6.16a15.21,15.21,0,0,1-.19-3.86,13,13,0,0,0,.59-2.78c-.05-1.42-1.17-2.56-1.53-3.93a13.24,13.24,0,0,1-.16-2.82C395.62,156,392.62,155.22,390,155Z" style="fill:#ffa8a7"></path></g><path d="M185.22,104.62c-1.65-2.22-2.52-6.87-.89-9.1s3.53-3.21,6.28-4.09c5.22-1.66,4.53-5.54,4.52-6.83,0-5,1.3-8,3.92-10.06,7-5.55,26.36-6.88,26.3,6.08,0,1.93-.57,4.06.52,5.65a6,6,0,0,0,1.9,1.58c3.43,2.13,7.08,4.05,9.86,7s4.6,7.18,3.42,11c-1.11,3.64-4.64,6.33-5.13,10.1-.67,5.18,4.69,9.93,3.46,15-1,4.07-4.19,5.05-7.7,5.7-4.05.75-5.25,5.82-9.92,5.68a25.36,25.36,0,0,0-6,1,17.35,17.35,0,0,1-7.45.22,9.39,9.39,0,0,1-6.06-4.07c-1.2-2-1.5-4.49-3.12-6.13-1.37-1.4-3.29-2.11-4.74-3.43-2.08-1.87-2.88-3.43-3.15-5-.1-.63-.3-3,.93-4.21a3.6,3.6,0,0,0-2.38,3.35,10.52,10.52,0,0,0,.92,4.25,9.12,9.12,0,0,1-4.27-13c.85-1.44,2.14-2.79,2.08-4.46C188.4,108.11,186.84,106.78,185.22,104.62Z" style="fill:#263238"></path><path d="M210.44,70.1c-7.06,4.24-5.95,18.22,3.24,23.84S221,62.91,210.44,70.1Z" style="fill:#008672"></path><g id="freepik--Chest--inject-152"><path d="M239.39,268.39a71.23,71.23,0,0,1-32.16-7.56c.16-3.72,1.8-39.89,3.76-68.52.63-9.17,1-16.6,1.38-23.16.8-15,1.25-23.26,3.3-30.2a180.87,180.87,0,0,1,17.67-4.74c.1,0,8.75-2,28.1-3.56l10.79-.51c1.26,1.2,2.89,2.66,4.78,4.34,8.19,7.32,20.57,18.36,25.06,28.57a25.85,25.85,0,0,1-7.51,29.64l-.18.15v.24c.14,9,0,21.55,0,21.67v.13l.07.12c0,.07,3.64,6.42,8.63,13.86-1.6,15.3-19.7,30.17-45.13,37.06A70.93,70.93,0,0,1,239.39,268.39Z" style="fill:#fafafa"></path><path d="M272,130.65c1.24,1.18,2.82,2.59,4.63,4.21,8.16,7.28,20.5,18.28,24.94,28.39a25.32,25.32,0,0,1-7.37,29.05l-.37.31v.48c.14,9,0,21.53,0,21.65V215l.13.24c0,.06,3.6,6.35,8.55,13.74-.81,7.17-5.24,14.33-12.83,20.75-8,6.79-19.08,12.22-31.91,15.7a70.42,70.42,0,0,1-18.43,2.45,71.38,71.38,0,0,1-31.65-7.35c.23-5.1,1.83-40.25,3.75-68.2.63-9.17,1-16.61,1.38-23.17.79-14.72,1.24-23,3.2-29.83a178.52,178.52,0,0,1,17.4-4.64c.09,0,8.72-2,28-3.55l10.59-.5m.38-1-11,.52c-19.62,1.58-28.16,3.57-28.16,3.57a180.3,180.3,0,0,0-18,4.83c-3,10-2.68,23-4.78,53.72-2.08,30.42-3.78,68.85-3.78,68.85a70.53,70.53,0,0,0,32.68,7.77,71.5,71.5,0,0,0,18.69-2.48c26.89-7.29,44.06-22.57,45.51-37.68-5.09-7.57-8.71-14-8.71-14s.14-12.56,0-21.69a26.24,26.24,0,0,0,7.65-30.22c-5.62-12.78-23.53-26.9-30.11-33.22Z" style="fill:#e0e0e0"></path><path d="M273.84,196.57s-7.27,9.78-22.57,8.71c-15.79-1.11-19.4-14-19.4-14s0,17.09,18.91,18.41C268.17,210.91,273.84,196.57,273.84,196.57Z" style="fill:#e0e0e0"></path></g><g id="freepik--Head--inject-152"><path d="M284.16,55.81C282.41,46.53,271.83,46.58,269,47c-3.8.61-8.36-1.24-11-4.1a13.39,13.39,0,0,0-13.11-3.3c-7.43,2.28-5.56,5.35-11.81,7.76-5.58,2.15-9.31,2.94-14.25,8.08-3,3.08-4.72,5.75-3.88,10-3.76,2.56-8.34,17,.26,32.28,4.42,7.85,9.49,11.39,15.88,17.78l5.91-.24c1.72-5.1,6.79-4.37,11.36-5.72,2.88-1.45,4.41-4.81,7.3-6.26s6.47-.62,9.67-1.33c2.49-.54,5-2.14,7.59-1.6,6,2.16,14.76-3.38,13.79-10.21-.31-2.06-1.54-4-1.23-6.1.41-2.7,3.21-4.31,4.65-6.64a7.17,7.17,0,0,0-.8-8.56C284.88,64.45,285.15,61.09,284.16,55.81Z" style="fill:#263238"></path><path d="M266.19,129.93s-1,0-3.09,0c-2.66-.1-2.4-1.82-2.76-4.39l-.42-4c6.2-.06,9.4-1.37,12.16-3.61,4.63-3.76,8.57-9.11,7.56-25.8-.41-6.74-2.53-9.8-2.5-11.32.17-9.06-.6-10.63-2.91-15.2-4.11-7.27-13.76-9.56-17.51-1.39-12.17-8.65-24.66,4-23.54,17.9,2.11,11.42-1.3,9.6-3.53,10.2-3.63-7-11.52-7.39-14.44-2.61-2.64,4.31-2.27,10.76,3.45,16.4,5.57,5.49,11.31,1.54,11.34.38,0,0,1.91,18.38,2.17,21.47s0,4.91-3.78,6.36h0c-3.87,1.47-5.58,2-5.58,2s.46.42,1.09,1c1.46,1.56,4.66,5,10.07,10.83,13.3,4.32,29.22,10.46,38.7,15.56,2.76-7.82,5.06-20.48,5.06-20.48A165.72,165.72,0,0,0,266.19,129.93Z" style="fill:#ffa8a7"></path><path d="M221.69,103.36a2.74,2.74,0,1,0,2.64-2.84A2.73,2.73,0,0,0,221.69,103.36Z" style="fill:#008672"></path><path d="M236.57,95.64A5.76,5.76,0,1,0,242,89.53,5.76,5.76,0,0,0,236.57,95.64Z" style="fill:#f28f8f"></path><path d="M279.64,92.07a29.89,29.89,0,0,0-.89-5.79,4.66,4.66,0,0,0-.75,0,5.76,5.76,0,0,0,.72,11.5,4.9,4.9,0,0,0,1.08-.2C279.81,95.87,279.76,94.05,279.64,92.07Z" style="fill:#f28f8f"></path><path d="M251.78,102.29l8.88,1.95a4.46,4.46,0,0,1-5.32,3.62A4.76,4.76,0,0,1,251.78,102.29Z" style="fill:#b16668"></path><path d="M252.51,104.23a5,5,0,0,1,5.34,3.42,4.27,4.27,0,0,1-2.51.21,4.69,4.69,0,0,1-3.49-3.48A4.86,4.86,0,0,1,252.51,104.23Z" style="fill:#f28f8f"></path><path d="M275,72.87l-6.82-1.53a3.34,3.34,0,0,1,4-2.7A3.66,3.66,0,0,1,275,72.87Z" style="fill:#263238"></path><path d="M241.45,77.4l6.35-3.13a3.41,3.41,0,0,0-4.64-1.7A3.72,3.72,0,0,0,241.45,77.4Z" style="fill:#263238"></path><path d="M246,86.76c.08,1.6,1.7.06,3.43-.2s3.38.79,3-.77a3,3,0,0,0-3.57-2.25A3.11,3.11,0,0,0,246,86.76Z" style="fill:#263238"></path><path d="M274.29,83.39c.4,1.55-1.6.56-3.33.83s-3,1.75-3.12.15a3,3,0,0,1,2.74-3.2A3.11,3.11,0,0,1,274.29,83.39Z" style="fill:#263238"></path><path d="M259.92,121.48c-11.13-.09-22-2.15-25.32-8.65a11.36,11.36,0,0,0,7.15,8.84,40.1,40.1,0,0,0,18.51,3Z" style="fill:#f28f8f"></path><path d="M262.84,83.5A9.07,9.07,0,1,1,272.45,92l-.24,0A9.08,9.08,0,0,1,262.84,83.5Zm8.57-8.26a7.7,7.7,0,0,0-7.21,8.17h0a7.7,7.7,0,1,0,7.41-8.18Z" style="fill:#455a64"></path><polygon points="270.37 92.82 261.6 98.04 258.09 80.54 270.37 92.82" style="fill:#f28f8f"></polygon><path d="M239.92,86.76A9.06,9.06,0,0,1,255,79.41a9,9,0,0,1,3,6.23,9.08,9.08,0,0,1-8.49,9.61h-.24A9.07,9.07,0,0,1,239.92,86.76Zm8.57-8.25a7.71,7.71,0,0,0-7.21,8.17l-.68,0,.68,0a7.71,7.71,0,1,0,7.41-8.18Z" style="fill:#455a64"></path><path d="M258,85.6a2.65,2.65,0,0,1,2.15-2.27,2.79,2.79,0,0,1,2.91,1.53l1.18-.67a4.13,4.13,0,0,0-4.33-2.2,4,4,0,0,0-3.25,3.38Z" style="fill:#455a64"></path><path d="M229,90.62l.16,0,11.62-3.22a.68.68,0,0,0-.36-1.32L228.8,89.29a.68.68,0,0,0,.2,1.33Z" style="fill:#455a64"></path></g><path d="M226.33,110.87V288.3a14.31,14.31,0,0,1-21.52,12.43l-57.44-33.14a1.36,1.36,0,0,0-.33-.14,1.27,1.27,0,0,0-.89.14,1.21,1.21,0,0,0-.55.69l-1.23.71v-.34a2.36,2.36,0,0,1,1.19-2.07,2.39,2.39,0,0,1,2.4,0l.3.17,57.13,33a13.18,13.18,0,0,0,19.77-11.42V110.87a.59.59,0,0,1,1.17,0Z" style="fill:#455a64"></path><path id="freepik--arm--inject-152" d="M215.27,138.55c-22.38,7.37-22.62,15-26.29,42.58s-7.55,48.13-7.55,48.13c-.78,4.1-1.63,8.18-2.33,12.3-1.41,8.3-2.62,16.64-4.46,24.86-.63,2.79-1.23,6.48-3.43,8.63a15.48,15.48,0,0,1-5.39,3.55c-2.14.83-2.73.78-7,1.21a32.39,32.39,0,0,0-7.08.95c-1.38.4-2.72,1.14-4.16,1.17s-2.74-.32-4.17.05a10.19,10.19,0,0,0-3.9,2.09,22.82,22.82,0,0,1-5.38,3c-4.3-.46-5.45,1.58-3.94,3.62,1.77,2.38,5.6,3.46,8.39,3.93,8,1.37,12.65,2.06,20.77,1.53,2.72-.18,6.71-.94,8.74,1.42s-2.64,2.59-4.05,2.81a14.94,14.94,0,0,0-6,1.83c-4.68,2.54-4.46,8.44,1.28,6.72,3.84-1.14,5.16-.56,9.12-.91s8.46-.81,11.76-3.08a37.78,37.78,0,0,0,4-3.5c1.67-1.55,4.22-2.78,5.34-4.77a22.85,22.85,0,0,0,2.48-9.34,19.54,19.54,0,0,1,.93-5.25c1-2.79,1.2-5.58,2.13-8.4s2-5.69,3-8.52c2.22-6.08,4.56-12.11,6.73-18.21a88.34,88.34,0,0,0,4.33-14.77c1.84-11.12,8.8-44.23,8.8-44.23S225.28,154.05,215.27,138.55Z" style="fill:#ffa8a7"></path><path d="M226,89.26l-8.89,1.13s-2.86-8.62-4.16-13.84c-.25-1-.63-3.16-.68-3.46-1-5.55-.7-12,2.8-15.8a24.76,24.76,0,0,1,8.78-5.92c-1.34.93-1.79,1.21-3.75,3.79A12.48,12.48,0,0,0,218,61a17.88,17.88,0,0,0,.59,7c.2,1,.46,2.09.82,3.33C221.45,78.57,226,89.26,226,89.26Z" style="fill:#455a64"></path><path d="M232.12,104.26c1.23-6-1.46-14.21-6-18.28a8.84,8.84,0,0,0-4.07-2.24,5.2,5.2,0,0,0-2.81.14l-3,1c-2.07.7-3.63,2.78-4.26,5.84-1.22,6,1.46,14.21,6,18.29a9,9,0,0,0,4.06,2.24,5.3,5.3,0,0,0,2.84-.15l3-1C229.93,109.42,231.5,107.34,232.12,104.26Z" style="fill:#37474f"></path><path d="M222,111.27A9,9,0,0,1,218,109c-4.53-4.08-7.21-12.28-6-18.29.89-4.35,3.67-6.7,7.09-6A8.93,8.93,0,0,1,223.12,87c4.52,4.08,7.21,12.28,6,18.29C228.22,109.63,225.44,112,222,111.27Z" style="fill:#263238"></path><path d="M228.44,105.14c1.18-5.8-1.4-13.7-5.77-17.64-2.18-2-4.4-2.57-6.22-2l-1.5.51c-1.82.61-3.24,2.44-3.83,5.34-1.18,5.8,1.4,13.7,5.77,17.63,2.18,2,4.4,2.58,6.21,2l1.51-.5C226.43,109.87,227.85,108,228.44,105.14Z" style="fill:#f0f0f0"></path><path d="M221.16,88c4.37,3.94,7,11.83,5.77,17.64s-5.68,7.31-10,3.37-6.95-11.83-5.77-17.63S216.79,84.08,221.16,88Z" style="fill:#e0e0e0"></path><path d="M226.93,105.65c1.18-5.81-1.4-13.7-5.77-17.64-2.18-2-4.39-2.57-6.21-2-.51.17-1.43.55-1.94.72-1.82.62-3.23,2.44-3.82,5.34-1.18,5.8,1.4,13.7,5.77,17.63,2.18,2,4.39,2.57,6.2,2,.51-.17,1.44-.56,1.94-.73C224.92,110.37,226.34,108.55,226.93,105.65Z" style="fill:#008672"></path><path d="M219.23,88.73c4.37,3.94,7,11.83,5.77,17.64s-5.68,7.31-10,3.37-7-11.83-5.77-17.63S214.86,84.79,219.23,88.73Z" style="fill:#fff;opacity:0.15"></path><path d="M217.14,94.28a10.87,10.87,0,0,1,3,9.26c-.62,3-3,3.84-5.27,1.77a10.85,10.85,0,0,1-3-9.26C212.49,93,214.85,92.21,217.14,94.28Z" style="fill:#263238"></path><path d="M219.15,97.63l-3.37,2.24-2.14-6.54a3.34,3.34,0,0,1,3.27,1A9.68,9.68,0,0,1,219.15,97.63Z" style="fill:#455a64"></path><path d="M219.94,103.62a3.43,3.43,0,0,1-2,2.8l-2.15-6.55,3.37-2.24A10.64,10.64,0,0,1,219.94,103.62Z" style="fill:#37474f"></path><path d="M217.93,106.42a3.37,3.37,0,0,1-3.27-1,9.38,9.38,0,0,1-2.23-3.28l3.35-2.24Z" style="fill:#455a64"></path><path d="M215.78,99.87l-3.35,2.24a10.53,10.53,0,0,1-.8-6,3.41,3.41,0,0,1,2-2.8Z" style="fill:#37474f"></path></g></g></g><g id="freepik--Device--inject-152"><g id="freepik--device--inject-152"><path id="freepik--shadow--inject-152" d="M263.7,342.59l-51.1-29.5a3.54,3.54,0,0,0-3.17,0l-28.81,16.64a1.31,1.31,0,0,0,0,2.48l50.73,29.29a3.13,3.13,0,0,0,2.8,0l29.56-17.08A1,1,0,0,0,263.7,342.59Z" style="opacity:0.2"></path><g id="freepik--Mobile--inject-152"><path d="M211.58,310.67l48.25,27.86a2.51,2.51,0,0,1,1.42,2.62,3,3,0,0,1-1.42,2.62l-25,14.47a4.15,4.15,0,0,1-3.76,0l-48.25-27.86a2.65,2.65,0,0,1-1.28-2.45,3.17,3.17,0,0,1,1.28-2.78l25-14.48A3.55,3.55,0,0,1,211.58,310.67Z" style="fill:#37474f"></path><path d="M210.21,311.84l-25.79,14.9,48.49,28v3.95a3.84,3.84,0,0,1-1.88-.45l-48.25-27.86a2.65,2.65,0,0,1-1.28-2.45,3.17,3.17,0,0,1,1.28-2.78l25-14.48a3.61,3.61,0,0,1,2.39-.5v1.67Z" style="fill:#263238"></path><path d="M259.35,338.76,211.2,311a3.37,3.37,0,0,0-3,0l-24.4,14.11a1.24,1.24,0,0,0,0,2.35L231.59,355a3,3,0,0,0,2.64,0l25.12-14.51A.92.92,0,0,0,259.35,338.76Z" style="fill:#455a64"></path><path d="M199.64,337.36a1.6,1.6,0,0,1,.74,1.23.46.46,0,0,1-.21.44l-.52.3a.55.55,0,0,1-.53-.06l-4.55-2.63a1.6,1.6,0,0,1-.74-1.23A.5.5,0,0,1,194,335l.54-.31a.57.57,0,0,1,.54.06Z" style="fill:#455a64"></path><path d="M199.12,337.66,194.57,335c-.41-.24-.74-.07-.74.38a1.6,1.6,0,0,0,.74,1.23l4.55,2.63c.41.23.74.07.74-.38A1.6,1.6,0,0,0,199.12,337.66Z" style="fill:#37474f"></path><path d="M191.67,332.76a1.6,1.6,0,0,1,.74,1.23.48.48,0,0,1-.2.44l-.52.3a.57.57,0,0,1-.54-.06L186.6,332a1.6,1.6,0,0,1-.74-1.23.48.48,0,0,1,.19-.43l.53-.31a.57.57,0,0,1,.54.06Z" style="fill:#455a64"></path><path d="M191.15,333.06l-4.55-2.63c-.41-.23-.74-.07-.74.38a1.6,1.6,0,0,0,.74,1.23l4.55,2.63c.41.23.75.07.75-.38A1.61,1.61,0,0,0,191.15,333.06Z" style="fill:#37474f"></path><path d="M212.42,312.84l44.37,25.62a.87.87,0,0,1,0,1.65l-22.57,13.05a3.12,3.12,0,0,1-2.85,0l-44.75-25.84c-.64-.37-.77-.92-.36-1.37l.09-.1.27-.18,6.8-3.92.44-.26a1,1,0,0,1,.88,0,1,1,0,0,0,.92,0l7.92-4.57c.26-.15.28-.39,0-.53s-.25-.34-.05-.48l0,0,5.06-2.93.14-.09A4,4,0,0,1,212.42,312.84Z"></path><path d="M194.74,322.51a1,1,0,0,0-.88,0l-.44.25-6.8,3.93a1.81,1.81,0,0,0-.27.18l-.09.1,0,0a1.57,1.57,0,0,0,.39.31l44.75,25.84a3.12,3.12,0,0,0,2.85,0l22.57-13.05a1.57,1.57,0,0,0,.39-.31,1.39,1.39,0,0,0-.39-.32l-44.37-25.62a4,4,0,0,0-3.61,0l-.14.08-4.88,2.83v.87a.36.36,0,0,1-.21.28l-7.92,4.57A1,1,0,0,1,194.74,322.51Z" style="fill:#263238"></path><path d="M195.37,319.92l3.64-2.1a.85.85,0,0,1,.76,0c.2.11.19.31,0,.44l-3.63,2.09a.85.85,0,0,1-.76,0C195.15,320.24,195.16,320,195.37,319.92Z" style="fill:#263238"></path><path d="M200.72,316.66a1,1,0,0,1,.88,0c.25.14.25.37,0,.51a1,1,0,0,1-.88,0A.27.27,0,0,1,200.72,316.66Z" style="fill:#263238"></path><path d="M229.25,329.11c4.82,2.78,5.34,7,1.17,9.39s-11.45,2.1-16.27-.68-5.33-7-1.16-9.39S224.44,326.33,229.25,329.11Z" style="fill:#008672"></path><path d="M216.73,331.82l-.44,2.5a.38.38,0,0,1-.18.2l-1,.55c-.27.16-.24.43.08.61l2.65,1.53a1.21,1.21,0,0,0,1.06.05l1-.55a.72.72,0,0,1,.34-.1l4.33-.26c.56-.05.71-.45.27-.71l-6.88-4C217.51,331.41,216.82,331.5,216.73,331.82Zm4.39-.26c-.28,0-.5.11-.48.27s.27.31.56.32a4.2,4.2,0,0,1,1.91.52,1.58,1.58,0,0,1,.89,1.09c0,.17.27.31.55.32a.64.64,0,0,0,.36-.07.2.2,0,0,0,.12-.2,2.23,2.23,0,0,0-1.25-1.53A5.72,5.72,0,0,0,221.12,331.56Zm-.2-1.54c-.29,0-.5.11-.48.28s.27.3.56.31a8.54,8.54,0,0,1,3.85,1.05,3.24,3.24,0,0,1,1.81,2.21c0,.17.27.31.56.32a.63.63,0,0,0,.35-.07.2.2,0,0,0,.12-.2,3.88,3.88,0,0,0-2.16-2.65A10.09,10.09,0,0,0,220.92,330Zm-.21-1.53c-.28,0-.49.11-.47.28s.27.3.55.31a12.63,12.63,0,0,1,5.8,1.58,4.84,4.84,0,0,1,2.72,3.32c0,.17.27.31.56.32a.63.63,0,0,0,.35-.07.21.21,0,0,0,.13-.2c-.18-1.38-1.27-2.72-3.08-3.77A14.43,14.43,0,0,0,220.71,328.49Z" style="fill:#fff"></path></g><g style="opacity:0.15"><polygon points="234.36 325.51 227.54 321.57 223.11 348.39 229.93 352.33 234.36 325.51" style="fill:#fff"></polygon><path d="M216.91,344.81,221.34,318l-8.92-5.15a4,4,0,0,0-3.61,0l-.14.09-2.41,1.4-4.7,21.61Z" style="fill:#fff"></path></g></g></g><g id="freepik--speech-bubble-2--inject-152"><g id="freepik--speech-bubble--inject-152"><path d="M152.32,109a49.8,49.8,0,1,0-38.24,38.16c9,7.65,23.32,10.57,31.49,6.37a.89.89,0,0,0,.46-.9.86.86,0,0,0-.67-.72,22.76,22.76,0,0,1-14.54-11.69A49.27,49.27,0,0,0,152.32,109Zm-23,30.17a.88.88,0,0,0-.34,1.07,24.82,24.82,0,0,0,13.63,12.64c-7.85,2.42-20.1-.67-27.69-7.3a.85.85,0,0,0-.76-.19,47.88,47.88,0,1,1,15.16-6.22Z" style="fill:#008672"></path><path d="M129.28,139.15a.88.88,0,0,0-.34,1.07,24.82,24.82,0,0,0,13.63,12.64c-7.85,2.42-20.1-.67-27.69-7.3a.85.85,0,0,0-.76-.19,47.88,47.88,0,1,1,15.16-6.22Z" style="fill:#fff"></path><path d="M96.17,74.27,81.9,85.9a2.69,2.69,0,0,1-1.55.51h-5.7a3.19,3.19,0,0,0-2.93,3.39v15.89a3.19,3.19,0,0,0,2.93,3.39h5.7a2.69,2.69,0,0,1,1.55.51l14.27,11.63c2,1.4,4.48-.23,4.48-2.88V77.15C100.65,74.5,98.13,72.87,96.17,74.27ZM110.69,86a1.84,1.84,0,0,0-2.86,0,2.61,2.61,0,0,0,0,3.31,13.11,13.11,0,0,1,0,16.73,2.61,2.61,0,0,0,0,3.31,1.85,1.85,0,0,0,2.87,0A18.32,18.32,0,0,0,110.69,86Zm7.36-8.57a1.83,1.83,0,0,0-2.86,0,2.59,2.59,0,0,0,0,3.3,26.53,26.53,0,0,1,.07,33.84,2.61,2.61,0,0,0,0,3.31,1.89,1.89,0,0,0,1.43.68,1.86,1.86,0,0,0,1.43-.68,31.76,31.76,0,0,0-.08-40.47Zm7.33-8.54a1.85,1.85,0,0,0-2.87,0,2.61,2.61,0,0,0,0,3.31,39.92,39.92,0,0,1,.1,50.89,2.59,2.59,0,0,0,0,3.3,1.84,1.84,0,0,0,2.87,0,43.69,43.69,0,0,0,10.29-28.68A43.63,43.63,0,0,0,125.38,68.92Z" style="fill:#455a64"></path></g></g><g id="freepik--speech-bubble-1--inject-152"><g id="freepik--speech-bubble--inject-152"><g id="freepik--speech-bubble--inject-152"><path d="M119.13,253.59,123.3,256l-3.84,11.07a1.23,1.23,0,0,1-1.8.66l-4.15-2.39a1.32,1.32,0,0,1-.45-.46L109.69,259Z" style="fill:#37474f"></path><path d="M123.3,256l-3.84,11.07a1.23,1.23,0,0,1-2.23.22l-3.37-5.84Z" style="fill:#455a64"></path><path d="M162.44,183.13,55.86,244.67a2.16,2.16,0,0,0-1,1.7v41.78a2.11,2.11,0,0,0,1,1.68l3.5,2a2.21,2.21,0,0,0,2,0L167.92,230.3a2.16,2.16,0,0,0,1-1.7V186.77a2.17,2.17,0,0,0-1-1.69l-3.5-2A2.2,2.2,0,0,0,162.44,183.13Z" style="fill:#455a64"></path><path d="M168.88,186.59c-.07-.49-.48-.67-1-.39L61.34,247.75a2,2,0,0,0-.7.73l-5.45-3.11a2,2,0,0,1,.67-.7l106.59-61.54a2.18,2.18,0,0,1,2,0l3.5,2A2.18,2.18,0,0,1,168.88,186.59Z" style="fill:#37474f"></path><path d="M60.36,291.27V249.44a2.15,2.15,0,0,1,1-1.69L167.92,186.2c.54-.31,1,0,1,.57V228.6a2.16,2.16,0,0,1-1,1.7L61.33,291.84C60.79,292.15,60.36,291.9,60.36,291.27Z" style="fill:#455a64"></path><path d="M61.33,291.84a2.25,2.25,0,0,1-2,0l-3.5-2a2.14,2.14,0,0,1-1-1.68V246.36a2,2,0,0,1,.31-1l5.45,3.11a1.93,1.93,0,0,0-.28,1v41.83C60.36,291.84,60.76,292.17,61.33,291.84Z" style="fill:#263238;opacity:0.2"></path></g><path d="M82,266.52,146.93,229c1.07-.61,1.93-.18,1.93,1a4.12,4.12,0,0,1-1.93,3.2L82,270.7c-1.07.62-1.93.18-1.93-1A4.13,4.13,0,0,1,82,266.52Z" style="fill:#fff;opacity:0.30000000000000004"></path><path d="M82,266.52,117,246.35c1.07-.61,1.93-.17,1.93,1a4.12,4.12,0,0,1-1.93,3.2L82,270.7c-1.07.62-1.93.18-1.93-1A4.13,4.13,0,0,1,82,266.52Z" style="fill:#fff"></path><path d="M73.38,252.82l-3.21,5.12a1,1,0,0,0-.14.47v3.88a.35.35,0,0,0,.14.32L73.38,264c.35.16.82-.5.82-1.15V253C74.2,252.37,73.73,252.26,73.38,252.82Zm-4.46,6-.54.31A1.14,1.14,0,0,0,68,260v3.07c0,.36.19.55.43.41l.54-.31a1.14,1.14,0,0,0,.43-.91v-3.07C69.35,258.85,69.16,258.66,68.92,258.8ZM75,255.32v4.25a4.73,4.73,0,0,0,.83-2.6C75.81,256.05,75.47,255.45,75,255.32Z" style="fill:#fafafa"></path><path d="M156.6,202.09l-1.07.62a1.5,1.5,0,0,0-.63,1.21V215.3c0,.46.28.68.63.48l1.07-.62a1.52,1.52,0,0,0,.63-1.21V202.57C157.23,202.1,157,201.89,156.6,202.09Zm5.06-2.92-1.08.62A1.5,1.5,0,0,0,160,201v11.38c0,.46.28.68.63.47l1.08-.61a1.56,1.56,0,0,0,.63-1.21V199.65C162.29,199.18,162,199,161.66,199.17Z" style="fill:#fafafa"></path><path d="M67.53,278.94a.06.06,0,0,1-.07,0,.12.12,0,0,1,0-.09V278l-1.18.68s0,0-.07,0a.12.12,0,0,1,0-.09v-.21a.38.38,0,0,1,0-.1.5.5,0,0,1,0-.13l1.19-3.08.06-.14.08-.08.16-.09a.06.06,0,0,1,.07,0,.12.12,0,0,1,0,.09v2.42l.32-.19a.06.06,0,0,1,.07,0,.15.15,0,0,1,0,.1v.21a.27.27,0,0,1,0,.12.17.17,0,0,1-.07.09l-.32.19v.79a.28.28,0,0,1,0,.13.35.35,0,0,1-.07.09Zm-.1-1.42v-1.63l-.82,2.1Z" style="fill:#fafafa"></path><path d="M68.85,277.13a.39.39,0,0,0,.21.31.43.43,0,0,0,.38-.07,1.25,1.25,0,0,0,.24-.18,1.27,1.27,0,0,0,.18-.27,1.15,1.15,0,0,0,.13-.34,1.6,1.6,0,0,0,.05-.39,1.06,1.06,0,0,0-.05-.34.34.34,0,0,0-.13-.19.27.27,0,0,0-.18-.05.59.59,0,0,0-.24.09.84.84,0,0,0-.23.18,1,1,0,0,0-.13.18l-.1.16a.27.27,0,0,1-.1.11l-.19.11s0,0-.06,0a.08.08,0,0,1,0-.07l.12-2a.27.27,0,0,1,0-.12c0-.05,0-.08.07-.09l1.32-.77a.08.08,0,0,1,.08,0,.19.19,0,0,1,0,.09v.21a.79.79,0,0,1,0,.13.15.15,0,0,1-.08.08l-1.09.64-.06,1a1,1,0,0,1,.18-.19,1.18,1.18,0,0,1,.27-.2.87.87,0,0,1,.37-.13.48.48,0,0,1,.31.1.67.67,0,0,1,.2.31,1.56,1.56,0,0,1,.07.52,2.51,2.51,0,0,1-.07.62,3.16,3.16,0,0,1-.2.54,2.11,2.11,0,0,1-.31.45,1.29,1.29,0,0,1-.37.3.75.75,0,0,1-.36.13.51.51,0,0,1-.3-.06.53.53,0,0,1-.21-.23,1,1,0,0,1-.08-.4.19.19,0,0,1,0-.1.1.1,0,0,1,0-.07l.18-.1s0,0,.06,0A.14.14,0,0,1,68.85,277.13Z" style="fill:#fafafa"></path><path d="M71.17,274.11a.06.06,0,0,1,.07,0,.12.12,0,0,1,0,.09v.39a.31.31,0,0,1,0,.13s0,.07-.07.08l-.25.15a0,0,0,0,1-.07,0,.12.12,0,0,1,0-.09v-.39a.27.27,0,0,1,0-.12.17.17,0,0,1,.07-.09Zm0,2s0,0,.07,0a.13.13,0,0,1,0,.1v.38a.31.31,0,0,1,0,.13.22.22,0,0,1-.07.09l-.25.14s0,0-.07,0a.13.13,0,0,1,0-.1v-.38a.31.31,0,0,1,0-.13.22.22,0,0,1,.07-.09Z" style="fill:#fafafa"></path><path d="M73.67,272.88c0,.18,0,.34,0,.49s0,.32,0,.49a3.58,3.58,0,0,1-.23,1.27,2.36,2.36,0,0,1-.3.51,1.44,1.44,0,0,1-.42.36.75.75,0,0,1-.43.13A.42.42,0,0,1,72,276a1.15,1.15,0,0,1-.17-.4,2.61,2.61,0,0,1-.06-.59c0-.18,0-.34,0-.49s0-.32,0-.49a3.52,3.52,0,0,1,.06-.66,3.62,3.62,0,0,1,.17-.61,2.14,2.14,0,0,1,.3-.51,1.39,1.39,0,0,1,.43-.37.75.75,0,0,1,.42-.12.42.42,0,0,1,.3.17,1.07,1.07,0,0,1,.17.4A2.61,2.61,0,0,1,73.67,272.88Zm-1.56,1.88a1.26,1.26,0,0,0,.16.72q.15.16.45,0a1.06,1.06,0,0,0,.44-.51,2.56,2.56,0,0,0,.16-.91v-1a1.22,1.22,0,0,0-.16-.72c-.1-.12-.25-.12-.44,0a1.05,1.05,0,0,0-.45.52,2.56,2.56,0,0,0-.16.91v1Z" style="fill:#fafafa"></path><path d="M75.27,272.34a2.75,2.75,0,0,0,.17-.41,1.58,1.58,0,0,0,0-.46.66.66,0,0,0-.11-.44c-.08-.09-.2-.09-.37,0a.79.79,0,0,0-.22.18,1,1,0,0,0-.16.25,2.47,2.47,0,0,0-.1.29c0,.1,0,.2,0,.3a.34.34,0,0,1,0,.12.14.14,0,0,1-.06.07l-.17.1h-.06a.1.1,0,0,1,0-.08,3,3,0,0,1,.07-.47,3,3,0,0,1,.17-.5,2.6,2.6,0,0,1,.28-.45,1.16,1.16,0,0,1,.37-.33.76.76,0,0,1,.36-.12.42.42,0,0,1,.27.12.71.71,0,0,1,.16.3,2,2,0,0,1,0,.45,1.83,1.83,0,0,1,0,.34,1.91,1.91,0,0,1-.06.33c0,.1-.07.21-.11.32s-.1.23-.17.36l-.83,1.68,1.15-.66a0,0,0,0,1,.07,0s0,.05,0,.09V274a.27.27,0,0,1,0,.12.23.23,0,0,1-.07.09l-1.62.94a.06.06,0,0,1-.07,0,.12.12,0,0,1,0-.09v-.21a.49.49,0,0,1,0-.12l.07-.15Z" style="fill:#fafafa"></path><path d="M153.13,227.36a3.37,3.37,0,0,0,.17-.42,1.93,1.93,0,0,0,0-.45.73.73,0,0,0-.11-.44c-.08-.1-.2-.09-.37,0a1,1,0,0,0-.38.44,2,2,0,0,0-.1.29l-.06.3a.42.42,0,0,1,0,.12.22.22,0,0,1-.06.07l-.17.1s0,0-.06,0a.08.08,0,0,1,0-.07,2.82,2.82,0,0,1,.07-.47,2.27,2.27,0,0,1,.17-.5,2.64,2.64,0,0,1,.27-.46,1.31,1.31,0,0,1,.38-.33.73.73,0,0,1,.36-.11.44.44,0,0,1,.27.11.82.82,0,0,1,.16.31,1.9,1.9,0,0,1,.05.44c0,.13,0,.24,0,.35a1.65,1.65,0,0,1-.06.32c0,.11-.07.22-.11.33s-.1.23-.17.36l-.83,1.68,1.14-.66a.06.06,0,0,1,.08,0,.13.13,0,0,1,0,.1v.2a.28.28,0,0,1,0,.13.24.24,0,0,1-.08.09l-1.61.93s-.06,0-.07,0a.11.11,0,0,1,0-.1v-.2a.37.37,0,0,1,0-.12l.07-.15Z" style="fill:#fafafa"></path><path d="M154.56,225.94a.06.06,0,0,1,.07,0,.13.13,0,0,1,0,.1v.38a.28.28,0,0,1,0,.13.22.22,0,0,1-.07.09l-.25.14s-.05,0-.07,0a.12.12,0,0,1,0-.09v-.39a.31.31,0,0,1,0-.13.22.22,0,0,1,.07-.09Zm0,2a.06.06,0,0,1,.07,0,.12.12,0,0,1,0,.09v.39a.35.35,0,0,1,0,.13s0,.07-.07.08l-.25.15a.06.06,0,0,1-.07,0,.12.12,0,0,1,0-.09v-.39a.35.35,0,0,1,0-.13s0-.07.07-.08Z" style="fill:#fafafa"></path><path d="M155.42,227.19a.88.88,0,0,0,.05.15.36.36,0,0,0,.1.11.27.27,0,0,0,.18,0,.81.81,0,0,0,.29-.12.87.87,0,0,0,.22-.17,1.55,1.55,0,0,0,.19-.24,1.34,1.34,0,0,0,.12-.3,1.36,1.36,0,0,0,.05-.36.7.7,0,0,0-.05-.28.24.24,0,0,0-.12-.14.27.27,0,0,0-.18,0,.89.89,0,0,0-.23.1l-.31.18a.06.06,0,0,1-.07,0,.12.12,0,0,1,0-.09v-.21a.36.36,0,0,1,0-.1s0-.08,0-.11l.67-1.51-1.08.63a.06.06,0,0,1-.07,0,.12.12,0,0,1,0-.09v-.21a.35.35,0,0,1,0-.13s0-.07.07-.08l1.48-.86a.06.06,0,0,1,.07,0,.12.12,0,0,1,0,.09v.21a.23.23,0,0,1,0,.11.56.56,0,0,1,0,.12l-.67,1.49a.88.88,0,0,1,.35-.11.39.39,0,0,1,.26.09.6.6,0,0,1,.17.27,1.18,1.18,0,0,1,.07.45,2.12,2.12,0,0,1-.08.57,2.36,2.36,0,0,1-.2.51,2,2,0,0,1-.3.42,1.39,1.39,0,0,1-.36.29,1,1,0,0,1-.43.16.48.48,0,0,1-.3-.06.47.47,0,0,1-.18-.23.88.88,0,0,1-.06-.33.43.43,0,0,1,0-.11.22.22,0,0,1,.06-.07l.17-.1s.05,0,.07,0A.09.09,0,0,1,155.42,227.19Z" style="fill:#fafafa"></path><path d="M158.15,223.89l.07-.06.07-.05a.79.79,0,0,1,.39-.12.5.5,0,0,1,.31.12.77.77,0,0,1,.2.32,1.57,1.57,0,0,1,.07.51,2.32,2.32,0,0,1-.07.59,3.08,3.08,0,0,1-.2.56,2.25,2.25,0,0,1-.31.47,1.32,1.32,0,0,1-.39.33.63.63,0,0,1-.39.12.49.49,0,0,1-.31-.11.88.88,0,0,1-.2-.33,1.53,1.53,0,0,1-.07-.51c0-.11,0-.22,0-.32a2.82,2.82,0,0,1,.07-.31c0-.1.05-.2.08-.3s.07-.18.1-.27l.69-1.95,0-.09a.16.16,0,0,1,.07-.09l.22-.12h0a.19.19,0,0,1,0,.08.07.07,0,0,1,0,0,.06.06,0,0,1,0,0Zm-.48,1.64a.94.94,0,0,0,.05.3.53.53,0,0,0,.12.21.27.27,0,0,0,.19.08.41.41,0,0,0,.26-.08.77.77,0,0,0,.26-.22,1.53,1.53,0,0,0,.19-.3,2.06,2.06,0,0,0,.12-.35,1.48,1.48,0,0,0,0-.35,1,1,0,0,0,0-.31.48.48,0,0,0-.12-.2.28.28,0,0,0-.19-.09.48.48,0,0,0-.26.08.9.9,0,0,0-.26.22,1.53,1.53,0,0,0-.19.3,2.42,2.42,0,0,0-.12.35A1.49,1.49,0,0,0,157.67,225.53Z" style="fill:#fafafa"></path><path d="M160,222.8s.05,0,.07,0a.12.12,0,0,1,0,.09v.39a.35.35,0,0,1,0,.13s0,.07-.07.08l-.25.15s-.05,0-.07,0a.13.13,0,0,1,0-.1v-.38a.28.28,0,0,1,0-.13.22.22,0,0,1,.07-.09Zm0,2s.05,0,.07,0a.13.13,0,0,1,0,.1v.38a.28.28,0,0,1,0,.13.22.22,0,0,1-.07.09l-.25.14s-.05,0-.07,0a.12.12,0,0,1,0-.09v-.39a.31.31,0,0,1,0-.13s0-.07.07-.08Z" style="fill:#fafafa"></path><path d="M162.51,221.56v1a4.6,4.6,0,0,1-.07.66,2.39,2.39,0,0,1-.17.61,2.14,2.14,0,0,1-.3.51,1.46,1.46,0,0,1-.42.36.75.75,0,0,1-.43.13.39.39,0,0,1-.29-.17.93.93,0,0,1-.18-.4,2.61,2.61,0,0,1-.06-.59v-1a3.52,3.52,0,0,1,.06-.66,2.89,2.89,0,0,1,.18-.61,1.83,1.83,0,0,1,.29-.51,1.53,1.53,0,0,1,.43-.37.7.7,0,0,1,.42-.12.42.42,0,0,1,.3.17.87.87,0,0,1,.17.4A3.29,3.29,0,0,1,162.51,221.56Zm-1.57,1.88a1.22,1.22,0,0,0,.16.72c.1.11.25.12.45,0a1.06,1.06,0,0,0,.44-.51,2.3,2.3,0,0,0,.16-.9c0-.18,0-.34,0-.5s0-.31,0-.48a1.19,1.19,0,0,0-.16-.72c-.1-.12-.25-.12-.44,0a1.05,1.05,0,0,0-.45.52,2.56,2.56,0,0,0-.16.91v1Z" style="fill:#fafafa"></path><path d="M164.1,221a2,2,0,0,0,.17-.41,1.56,1.56,0,0,0,.06-.46.66.66,0,0,0-.12-.44c-.08-.09-.2-.09-.37,0a1,1,0,0,0-.22.18,2.13,2.13,0,0,0-.16.25,1.4,1.4,0,0,0-.09.29,1.59,1.59,0,0,0-.06.3.34.34,0,0,1,0,.12.14.14,0,0,1-.06.07l-.17.1H163s0,0,0-.08a2.09,2.09,0,0,1,.06-.47,3.28,3.28,0,0,1,.17-.5,2.6,2.6,0,0,1,.28-.45,1.28,1.28,0,0,1,.37-.33.65.65,0,0,1,.37-.11.36.36,0,0,1,.26.11.71.71,0,0,1,.16.3,1.55,1.55,0,0,1,.05.45,2.64,2.64,0,0,1-.08.67,2.44,2.44,0,0,1-.11.32,3.64,3.64,0,0,1-.16.36l-.84,1.68,1.15-.66a.06.06,0,0,1,.07,0,.12.12,0,0,1,0,.09v.21a.27.27,0,0,1,0,.12c0,.05,0,.08-.07.09l-1.62.94a.06.06,0,0,1-.07,0,.12.12,0,0,1,0-.09v-.21a.5.5,0,0,1,0-.12.77.77,0,0,1,.06-.15Z" style="fill:#fafafa"></path><path d="M88.75,244.76a.11.11,0,0,1,.15,0,.28.28,0,0,1,.07.2v.45a.68.68,0,0,1-.07.27.42.42,0,0,1-.15.19l-2.66,1.53v2.88l2.5-1.44a.11.11,0,0,1,.15,0,.28.28,0,0,1,.07.2v.45a.68.68,0,0,1-.07.27.42.42,0,0,1-.15.19l-2.5,1.44v3.27A.57.57,0,0,1,86,255a.42.42,0,0,1-.15.19l-.33.19a.13.13,0,0,1-.16,0,.28.28,0,0,1-.06-.2v-8.05a.66.66,0,0,1,.06-.27.45.45,0,0,1,.16-.19Z" style="fill:#fafafa"></path><path d="M89.37,251.48a3.24,3.24,0,0,1,.13-.94,3.94,3.94,0,0,1,.36-.84,3.9,3.9,0,0,1,.53-.73,4.67,4.67,0,0,1,.64-.62l1.14-.95v-.16c0-.42-.09-.69-.27-.8a.69.69,0,0,0-.68.07,1.53,1.53,0,0,0-.53.51,5,5,0,0,0-.32.66.75.75,0,0,1-.1.2l-.15.12-.25.14a.11.11,0,0,1-.15,0,.23.23,0,0,1-.07-.2,2.54,2.54,0,0,1,.15-.64,3.28,3.28,0,0,1,.34-.71,3.82,3.82,0,0,1,.49-.65,3,3,0,0,1,.59-.49,1.54,1.54,0,0,1,.68-.22.7.7,0,0,1,.53.16,1.14,1.14,0,0,1,.35.57,3.39,3.39,0,0,1,.13,1v3.8a.68.68,0,0,1-.07.27.38.38,0,0,1-.15.19l-.3.17a.11.11,0,0,1-.15,0,.24.24,0,0,1-.07-.2v-.51a2,2,0,0,1-.23.55,3.54,3.54,0,0,1-.35.51,3.28,3.28,0,0,1-.41.42,3,3,0,0,1-.4.3,1.31,1.31,0,0,1-.58.19.65.65,0,0,1-.44-.11.75.75,0,0,1-.29-.39A1.72,1.72,0,0,1,89.37,251.48Zm1.49-.17a2,2,0,0,0,.53-.45,2.7,2.7,0,0,0,.42-.62,3,3,0,0,0,.27-.73,3.57,3.57,0,0,0,.09-.8v-.31l-1,.78a4.07,4.07,0,0,0-.81.87,1.58,1.58,0,0,0-.3.88.66.66,0,0,0,0,.25.36.36,0,0,0,.13.19.33.33,0,0,0,.23.07A1,1,0,0,0,90.86,251.31Z" style="fill:#fafafa"></path><path d="M94.9,242.12a.67.67,0,0,1-.06.28.51.51,0,0,1-.15.19l-.46.26a.12.12,0,0,1-.16,0,.28.28,0,0,1-.06-.2v-.71a.66.66,0,0,1,.06-.27.44.44,0,0,1,.16-.19l.46-.27a.11.11,0,0,1,.15,0,.25.25,0,0,1,.06.19Zm-.08,7.51a.66.66,0,0,1-.06.27.38.38,0,0,1-.15.19l-.3.17a.12.12,0,0,1-.16,0,.3.3,0,0,1-.06-.2v-5.81a.66.66,0,0,1,.06-.27.39.39,0,0,1,.16-.19l.3-.17a.11.11,0,0,1,.15,0,.28.28,0,0,1,.06.2Z" style="fill:#fafafa"></path><path d="M98.17,241.56a.12.12,0,0,1,.16,0,.28.28,0,0,1,.06.2v.4a.66.66,0,0,1-.06.27.52.52,0,0,1-.16.19l-.47.27a2.07,2.07,0,0,0-.93,2v3.64a.66.66,0,0,1-.06.27.52.52,0,0,1-.16.19l-.29.17a.12.12,0,0,1-.16,0,.28.28,0,0,1-.06-.2v-5.8a.71.71,0,0,1,.06-.28.52.52,0,0,1,.16-.19l.29-.17a.13.13,0,0,1,.16,0,.28.28,0,0,1,.06.2v.39a2.91,2.91,0,0,1,.39-.77,1.86,1.86,0,0,1,.59-.52Z" style="fill:#fafafa"></path><path d="M100.33,248.85a.9.9,0,0,1-.08.25.42.42,0,0,1-.15.19l-.33.19c-.06,0-.1,0-.14,0a.23.23,0,0,1-.06-.18.28.28,0,0,1,0-.09l.78-3-1.61-4.54v-.09a.69.69,0,0,1,0-.24.49.49,0,0,1,.14-.17l.33-.19c.07,0,.12,0,.16,0a.8.8,0,0,1,.08.16l1.24,3.51,1.26-5a1.52,1.52,0,0,1,.09-.25.32.32,0,0,1,.15-.19l.33-.19a.11.11,0,0,1,.14,0,.24.24,0,0,1,0,.18v.09Z" style="fill:#fafafa"></path><path d="M108.74,233.22a.11.11,0,0,1,.15,0,.28.28,0,0,1,.06.2v.45a.66.66,0,0,1-.06.27.42.42,0,0,1-.15.19l-1.52.87v7.26a.74.74,0,0,1-.06.28.36.36,0,0,1-.16.18l-.33.2a.11.11,0,0,1-.15,0,.26.26,0,0,1-.07-.19v-7.27l-1.51.88a.12.12,0,0,1-.15,0,.24.24,0,0,1-.07-.2v-.45a.61.61,0,0,1,.07-.28.35.35,0,0,1,.15-.18Z" style="fill:#fafafa"></path><path d="M108.73,240.31a3.3,3.3,0,0,1,.13-.95,3.47,3.47,0,0,1,.35-.84,4.25,4.25,0,0,1,.53-.73,6.35,6.35,0,0,1,.65-.62l1.14-.94v-.17c0-.42-.09-.68-.27-.79a.64.64,0,0,0-.68.07,1.48,1.48,0,0,0-.54.51,4.33,4.33,0,0,0-.31.65.92.92,0,0,1-.1.2.53.53,0,0,1-.16.13l-.24.14a.13.13,0,0,1-.16,0,.28.28,0,0,1-.06-.2,2.54,2.54,0,0,1,.14-.65,3.93,3.93,0,0,1,.84-1.35,2.23,2.23,0,0,1,.59-.49,1.53,1.53,0,0,1,.68-.23.72.72,0,0,1,.53.17,1.21,1.21,0,0,1,.35.57,3.36,3.36,0,0,1,.12,1v3.8a.71.71,0,0,1-.06.28.41.41,0,0,1-.16.18l-.3.18a.12.12,0,0,1-.15,0,.3.3,0,0,1-.06-.2v-.51a2.5,2.5,0,0,1-.23.54,3.54,3.54,0,0,1-.35.51,4.22,4.22,0,0,1-.41.43,3.54,3.54,0,0,1-.4.29,1.39,1.39,0,0,1-.58.2.72.72,0,0,1-.45-.11.89.89,0,0,1-.28-.39A1.76,1.76,0,0,1,108.73,240.31Zm1.49-.18a2.18,2.18,0,0,0,.53-.44,3.38,3.38,0,0,0,.42-.62,3.73,3.73,0,0,0,.26-.73,3.15,3.15,0,0,0,.1-.81v-.31l-1,.79a4.07,4.07,0,0,0-.81.87,1.55,1.55,0,0,0-.3.88,1,1,0,0,0,0,.25.35.35,0,0,0,.13.18.3.3,0,0,0,.23.07A.79.79,0,0,0,110.22,240.13Z" style="fill:#fafafa"></path><path d="M114.18,238.46a.54.54,0,0,1-.07.27.42.42,0,0,1-.15.19l-.3.17a.12.12,0,0,1-.15,0,.28.28,0,0,1-.07-.2v-8.17a.68.68,0,0,1,.07-.27.34.34,0,0,1,.15-.19l.3-.17a.11.11,0,0,1,.15,0,.23.23,0,0,1,.07.2Z" style="fill:#fafafa"></path><path d="M115.2,234.34a5.92,5.92,0,0,1,.18-1.17,5.39,5.39,0,0,1,.38-1.09,3.77,3.77,0,0,1,.56-.91,2.74,2.74,0,0,1,.73-.64,1.43,1.43,0,0,1,.78-.23.82.82,0,0,1,.59.29,1.89,1.89,0,0,1,.37.78,4.91,4.91,0,0,1,.13,1.24v.33a.74.74,0,0,1-.06.28.41.41,0,0,1-.16.18L115.92,235v.08a1.48,1.48,0,0,0,.33,1.1.66.66,0,0,0,.8,0,2.05,2.05,0,0,0,.67-.58,3.8,3.8,0,0,0,.36-.64,1.11,1.11,0,0,1,.11-.2.31.31,0,0,1,.15-.12l.24-.14a.13.13,0,0,1,.16,0,.22.22,0,0,1,.06.21,2.6,2.6,0,0,1-.14.57,3.07,3.07,0,0,1-.33.69,4.55,4.55,0,0,1-.53.69,3.16,3.16,0,0,1-.75.59,1.28,1.28,0,0,1-.73.2.9.9,0,0,1-.56-.27,1.64,1.64,0,0,1-.38-.68,3.72,3.72,0,0,1-.18-1A7.36,7.36,0,0,1,115.2,234.34Zm.72-.38,2.27-1.31v0a1.33,1.33,0,0,0-.31-1c-.21-.18-.48-.17-.83,0a2.11,2.11,0,0,0-.44.37,3.11,3.11,0,0,0-.59,1.21,3.22,3.22,0,0,0-.1.75Z" style="fill:#fafafa"></path><path d="M122.29,232.31a.61.61,0,0,0-.08-.34.36.36,0,0,0-.26-.12,1.4,1.4,0,0,0-.43,0l-.61.14c-.44.11-.74.05-.92-.17a1.66,1.66,0,0,1-.26-1,3.44,3.44,0,0,1,.09-.77,3.83,3.83,0,0,1,.3-.77,3.22,3.22,0,0,1,.49-.69,2.7,2.7,0,0,1,.69-.55,1.8,1.8,0,0,1,.69-.26,1,1,0,0,1,.5.06.68.68,0,0,1,.3.28.89.89,0,0,1,.12.4.66.66,0,0,1-.06.27.39.39,0,0,1-.16.19l-.27.16a.35.35,0,0,1-.11,0s-.09,0-.13-.07a.39.39,0,0,0-.31-.17,1,1,0,0,0-.57.18,1.93,1.93,0,0,0-.61.56,1.31,1.31,0,0,0-.23.72.69.69,0,0,0,.07.34.26.26,0,0,0,.21.13.88.88,0,0,0,.38,0l.6-.13a1.52,1.52,0,0,1,.62,0,.79.79,0,0,1,.41.2.84.84,0,0,1,.21.41,2,2,0,0,1,.07.58,2.86,2.86,0,0,1-.12.79,3.74,3.74,0,0,1-.33.8,4.68,4.68,0,0,1-.53.73,3,3,0,0,1-.71.57,1.72,1.72,0,0,1-.71.26,1.07,1.07,0,0,1-.52-.06.73.73,0,0,1-.34-.28.75.75,0,0,1-.12-.41.52.52,0,0,1,0-.27.4.4,0,0,1,.17-.19l.29-.17.11,0s.08,0,.12.07a.44.44,0,0,0,.36.22,1,1,0,0,0,.59-.19,2,2,0,0,0,.35-.26,2.11,2.11,0,0,0,.31-.36,1.47,1.47,0,0,0,.21-.39A.91.91,0,0,0,122.29,232.31Z" style="fill:#fafafa"></path><path d="M129.31,221.65a2,2,0,0,1,.09-.26.58.58,0,0,1,.23-.24l.3-.17a.09.09,0,0,1,.12,0,.2.2,0,0,1,.06.16.78.78,0,0,1,0,.14l-1.75,8.83a1.7,1.7,0,0,1-.15.45.78.78,0,0,1-.28.29l-.32.19a.25.25,0,0,1-.27,0,.5.5,0,0,1-.15-.28l-1.76-6.8a.49.49,0,0,1,0-.12.59.59,0,0,1,0-.22.36.36,0,0,1,.13-.16l.3-.17c.1-.06.18-.07.22,0a.29.29,0,0,1,.09.15l1.56,6.26Z" style="fill:#fafafa"></path><path d="M132.27,221.74a1.68,1.68,0,0,1,.78-.24.86.86,0,0,1,.58.23,1.61,1.61,0,0,1,.39.66,4.17,4.17,0,0,1,.17,1,1.93,1.93,0,0,1,0,.26v.65a2,2,0,0,1,0,.26,7.91,7.91,0,0,1-.18,1.23,5,5,0,0,1-.38,1.09,4,4,0,0,1-.58.91,3,3,0,0,1-.78.65,1.45,1.45,0,0,1-.77.24.82.82,0,0,1-.58-.23,1.38,1.38,0,0,1-.39-.65,4.09,4.09,0,0,1-.17-1c0-.06,0-.15,0-.25v-.65c0-.1,0-.19,0-.27a7.14,7.14,0,0,1,.17-1.23,4.77,4.77,0,0,1,.39-1.1,4.2,4.2,0,0,1,.58-.9A2.84,2.84,0,0,1,132.27,221.74Zm1.18,3.21a4.19,4.19,0,0,0,0-.53,4.1,4.1,0,0,0,0-.52,3,3,0,0,0-.1-.64.94.94,0,0,0-.23-.42.47.47,0,0,0-.35-.17.91.91,0,0,0-.5.15,1.79,1.79,0,0,0-.49.42,2.58,2.58,0,0,0-.36.58,3.49,3.49,0,0,0-.22.69,4.8,4.8,0,0,0-.11.76c0,.15,0,.33,0,.53s0,.38,0,.51a2.94,2.94,0,0,0,.11.64,1.09,1.09,0,0,0,.22.43.56.56,0,0,0,.36.17.88.88,0,0,0,.49-.15,1.83,1.83,0,0,0,.5-.42,2.63,2.63,0,0,0,.35-.58,3.29,3.29,0,0,0,.23-.69A4.79,4.79,0,0,0,133.45,225Z" style="fill:#fafafa"></path><path d="M136,225.88a.71.71,0,0,1-.06.28.51.51,0,0,1-.15.19l-.3.17a.13.13,0,0,1-.16,0,.28.28,0,0,1-.06-.2v-8.17a.66.66,0,0,1,.06-.27.39.39,0,0,1,.16-.19l.3-.17a.11.11,0,0,1,.15,0,.3.3,0,0,1,.06.2Z" style="fill:#fafafa"></path><path d="M137.83,223.63a.11.11,0,0,1,.15,0,.24.24,0,0,1,.07.2v.84a.57.57,0,0,1-.07.27.42.42,0,0,1-.15.19l-.54.31a.13.13,0,0,1-.16,0,.28.28,0,0,1-.06-.2v-.84a.66.66,0,0,1,.06-.27.52.52,0,0,1,.16-.19Z" style="fill:#fafafa"></path><path d="M143.47,217.3a5.27,5.27,0,0,0,.36-.9,3.52,3.52,0,0,0,.12-1,1.45,1.45,0,0,0-.25-1c-.17-.2-.43-.2-.79,0a1.89,1.89,0,0,0-.48.4,2.44,2.44,0,0,0-.33.54,3.23,3.23,0,0,0-.21.62c0,.22-.1.43-.13.65a.66.66,0,0,1-.08.26.5.5,0,0,1-.13.15l-.37.21a.09.09,0,0,1-.13,0,.22.22,0,0,1-.05-.16,4.79,4.79,0,0,1,.14-1,5.52,5.52,0,0,1,.37-1.08,4.61,4.61,0,0,1,.6-1,2.72,2.72,0,0,1,.8-.72,1.5,1.5,0,0,1,.78-.24.79.79,0,0,1,.57.25,1.51,1.51,0,0,1,.35.64,4,4,0,0,1,.11,1,5.86,5.86,0,0,1,0,.75,5.58,5.58,0,0,1-.13.69,4.83,4.83,0,0,1-.24.7c-.1.24-.22.5-.36.77l-1.8,3.63,2.48-1.43a.12.12,0,0,1,.15,0,.3.3,0,0,1,.06.2v.45a.74.74,0,0,1-.06.28.4.4,0,0,1-.15.18l-3.49,2a.12.12,0,0,1-.15,0,.24.24,0,0,1-.07-.2v-.45a.75.75,0,0,1,0-.26,2.41,2.41,0,0,1,.14-.32Z" style="fill:#fafafa"></path></g></g></svg>