<svg width="260" height="260" viewBox="0 0 260 260" fill="none" xmlns="http://www.w3.org/2000/svg">
<path d="M130.337 32.7058C131.975 33.0958 133.613 33.2778 135.277 33.1218C143.493 32.4198 171.443 32.1078 183.507 58.7318C197.703 90.1398 205.425 98.6418 195.519 135.146C185.613 171.65 193.517 170.272 198.639 188.862L198.795 189.408C201.551 199.418 193.439 209.09 183.065 208.232L163.227 206.542C161.797 206.412 160.341 206.516 158.937 206.802C147.653 209.142 93.7552 219.828 73.0852 214.42C66.0132 212.574 59.9552 210.338 54.9112 208.102C46.2792 204.28 43.5752 193.516 48.9312 185.742C51.1932 182.492 52.9612 178.93 53.3252 175.524C54.4172 165.02 47.1112 155.556 49.9972 137.746C54.8072 107.924 63.9332 110.68 65.5452 92.0638C66.4812 81.4038 82.5232 21.2918 130.311 32.7058H130.337Z" fill="#EB3F3A"/>
<path d="M130.337 32.7058C131.975 33.0958 133.613 33.2778 135.277 33.1218C143.493 32.4198 171.443 32.1078 183.507 58.7318C197.703 90.1398 205.425 98.6418 195.519 135.146C185.613 171.65 193.517 170.272 198.639 188.862L198.795 189.408C201.551 199.418 193.439 209.09 183.065 208.232L163.227 206.542C161.797 206.412 160.341 206.516 158.937 206.802C147.653 209.142 93.7552 219.828 73.0852 214.42C66.0132 212.574 59.9552 210.338 54.9112 208.102C46.2792 204.28 43.5752 193.516 48.9312 185.742C51.1932 182.492 52.9612 178.93 53.3252 175.524C54.4172 165.02 47.1112 155.556 49.9972 137.746C54.8072 107.924 63.9332 110.68 65.5452 92.0638C66.4812 81.4038 82.5232 21.2918 130.311 32.7058H130.337Z" fill="#EB3F3A"/>
<path d="M233.454 228.279C211.926 221.025 158.132 193.179 158.132 193.179L154.804 167.751H107.692L104.65 193.179C104.65 193.179 50.882 221.025 29.328 228.279C7.77402 235.533 7.80002 272.297 7.80002 272.297H255.008C255.008 272.297 255.008 235.533 233.48 228.279H233.454Z" fill="#FFB69F"/>
<path d="M131.404 201.216C146.18 201.216 158.158 197.619 158.158 193.182C158.158 188.745 146.18 185.148 131.404 185.148C116.628 185.148 104.65 188.745 104.65 193.182C104.65 197.619 116.628 201.216 131.404 201.216Z" fill="#FFB69F"/>
<path d="M105.663 184.754C105.663 184.754 142.193 188.108 155.063 172.092V153.684L108.757 158.13L105.663 184.754V184.754Z" fill="#FF9988"/>
<path d="M133.588 175.136C163.039 175.136 186.914 144.614 186.914 106.964C186.914 69.3134 163.039 38.7918 133.588 38.7918C104.137 38.7918 80.2623 69.3134 80.2623 106.964C80.2623 144.614 104.137 175.136 133.588 175.136Z" fill="#FFB69F"/>
<path d="M185.224 100.436C185.224 100.436 194.428 99.3177 195.26 108.08C196.092 116.842 193.154 123.576 187.694 126.488C187.694 126.488 186.524 127.06 183.846 127.528L185.224 100.462V100.436Z" fill="#FFB69F"/>
<path d="M81.3276 100.436C81.3276 100.436 72.1236 99.3177 71.2916 108.08C70.4596 116.842 73.3976 123.576 78.8576 126.488C78.8576 126.488 80.0276 127.06 82.7056 127.528L81.3276 100.462V100.436Z" fill="#FFB69F"/>
<path d="M80.2616 101.062C80.2616 101.062 76.3876 38.2984 133.588 39.0524V104.728L80.2616 101.062V101.062Z" fill="#FFB69F"/>
<path d="M186.888 101.062C186.888 101.062 190.762 38.2984 133.562 39.0524V104.728L186.888 101.062V101.062Z" fill="#FFB69F"/>
<path d="M97.0314 93.2896C105.819 91.7036 113.593 92.9516 117.545 93.7056C118.741 93.9396 119.937 93.3676 120.301 92.3796C120.717 91.2616 119.937 90.1176 118.585 89.8576C114.087 88.9996 106.001 87.6996 97.5254 90.6636C96.2254 91.1316 93.9114 92.4056 94.6134 93.4196C95.0034 93.7836 95.8614 93.4716 97.0314 93.2636V93.2896Z" fill="#EB3F3A"/>
<path d="M170.691 93.3165C161.903 91.7305 154.129 92.9785 150.177 93.7325C148.981 93.9665 147.785 93.3685 147.421 92.3805C147.005 91.2625 147.785 90.0925 149.137 89.8325C153.635 88.9485 161.721 87.6485 170.197 90.6645C171.497 91.1325 173.811 92.4065 173.109 93.4465C172.719 93.8105 171.861 93.4985 170.691 93.2905V93.3165Z" fill="#EB3F3A"/>
<path d="M158.783 112.422C160.52 112.422 161.929 109.977 161.929 106.962C161.929 103.946 160.52 101.502 158.783 101.502C157.045 101.502 155.637 103.946 155.637 106.962C155.637 109.977 157.045 112.422 158.783 112.422Z" fill="#441D39"/>
<path d="M111.592 111.304C113.329 111.304 114.738 108.86 114.738 105.844C114.738 102.829 113.329 100.384 111.592 100.384C109.854 100.384 108.446 102.829 108.446 105.844C108.446 108.86 109.854 111.304 111.592 111.304Z" fill="#441D39"/>
<path d="M137.254 131.507H132.288C130.078 131.507 128.128 130.649 127.088 129.219C126.334 128.205 126.126 127.009 126.49 125.839C127.634 122.095 128.596 118.533 128.596 118.533C128.778 117.831 129.506 117.441 130.182 117.623C130.884 117.805 131.3 118.533 131.092 119.209C131.092 119.209 130.13 122.823 128.96 126.593C128.856 126.983 128.908 127.321 129.168 127.685C129.714 128.413 130.936 128.907 132.288 128.907H137.254C137.982 128.907 138.554 129.479 138.554 130.207C138.554 130.935 137.982 131.507 137.254 131.507V131.507Z" fill="#FF9988"/>
<path d="M125.969 148.433C123.551 148.433 121.965 148.303 121.783 148.277C121.081 148.225 120.535 147.575 120.613 146.873C120.665 146.145 121.315 145.651 122.017 145.677C122.173 145.677 136.837 146.873 147.705 141.517C148.355 141.205 149.135 141.465 149.447 142.115C149.759 142.765 149.499 143.545 148.849 143.857C140.893 147.783 131.351 148.407 125.995 148.407L125.969 148.433Z" fill="#FF9988"/>
<path d="M161.382 120.977C166.394 120.977 170.456 120.046 170.456 118.897C170.456 117.748 166.394 116.817 161.382 116.817C156.371 116.817 152.308 117.748 152.308 118.897C152.308 120.046 156.371 120.977 161.382 120.977Z" fill="#FF9988"/>
<path d="M108.445 120.977C113.457 120.977 117.519 120.046 117.519 118.897C117.519 117.748 113.457 116.817 108.445 116.817C103.434 116.817 99.3713 117.748 99.3713 118.897C99.3713 120.046 103.434 120.977 108.445 120.977Z" fill="#FF9988"/>
<path d="M158.156 193.182C158.156 193.182 157.403 184.446 156.935 183.9C145.209 187.618 123.083 187.202 105.845 183.198C105.845 183.198 104.362 189.022 82.7045 204.284L50.7765 219.494L47.8385 272.3H212.003L206.542 217.206L158.182 193.182H158.156Z" fill="#1C2642"/>
<path d="M151.346 36.792C151.268 36.662 151.216 36.506 151.138 36.402C149.448 33.594 123.422 32.45 121.264 33.126C119.522 33.672 97.084 46.594 88.556 51.534C86.45 52.756 84.838 54.654 84.006 56.942L66.69 103.898C66.274 105.016 66.066 106.212 66.04 107.434L65.364 202.126C65.338 207.482 62.452 211.018 67.782 211.564L91.234 214.242C96.356 214.762 101.062 211.486 102.362 206.52L104.182 196.198C104.806 193.806 104.078 191.934 104.364 189.022C105.352 179.298 89.492 156.86 91.754 150.048C94.562 141.572 98.41 132.498 99.086 121.006C99.762 109.514 92.326 89.234 102.804 64.586C111.228 44.774 130.78 48.726 138.112 51.04C138.658 51.222 139.23 51.326 139.802 51.404C139.802 51.404 181.922 64.456 183.014 111.308C183.014 111.308 184.73 113.96 185.822 110.84C193.336 89.182 183.586 41.446 151.32 36.818L151.346 36.792Z" fill="#EB3F3A"/>
<path d="M186.835 123.603C187.812 123.603 188.603 122.812 188.603 121.835C188.603 120.859 187.812 120.067 186.835 120.067C185.859 120.067 185.067 120.859 185.067 121.835C185.067 122.812 185.859 123.603 186.835 123.603Z" fill="white"/>
</svg>
