<svg width="260" height="260" viewBox="0 0 260 260" fill="none" xmlns="http://www.w3.org/2000/svg">
<path d="M233.454 228.282C211.926 221.028 158.132 193.182 158.132 193.182H104.65C104.65 193.182 50.882 221.028 29.328 228.282C7.8 235.536 7.8 272.3 7.8 272.3H255.008C255.008 272.3 255.008 235.536 233.48 228.282H233.454Z" fill="#424777"/>
<path fill-rule="evenodd" clip-rule="evenodd" d="M104.183 197.235L107.693 167.751H154.831L158.471 195.675L153.477 195.818L141.049 204.257L135.069 263.121L125.189 204.985L115.686 196.904L104.183 197.235Z" fill="#C1735C"/>
<path d="M105.663 184.754C105.663 184.754 142.193 188.108 155.063 172.092V153.684L108.757 158.13L105.663 184.754V184.754Z" fill="#A5503C"/>
<path d="M105.273 188.033L87.6713 201.787L111.409 224.953L125.189 204.985L105.273 188.033Z" fill="#515882"/>
<path d="M141.05 204.256L157.508 188.266L173.55 200.954L152.308 224.198L141.05 204.256Z" fill="#515882"/>
<path d="M120.562 16.7966C117.156 8.37261 101.088 3.22461 101.088 3.22461C105.066 29.5626 120.198 23.8946 120.198 23.8946C120.51 23.2706 120.718 22.6466 120.9 22.0486C132.756 28.6526 142.636 4.42061 142.636 4.42061C126.126 5.61661 121.602 12.0646 120.562 16.7966V16.7966Z" fill="#FF7C59"/>
<path fill-rule="evenodd" clip-rule="evenodd" d="M133.588 175.136C157.467 175.136 177.68 155.071 184.474 127.411C186.708 126.97 187.694 126.488 187.694 126.488C193.154 123.576 196.092 116.842 195.26 108.08C194.636 101.504 189.296 100.493 186.67 100.398C184.086 65.8279 161.307 38.7918 133.588 38.7918C105.872 38.7918 83.0938 65.8243 80.507 100.391C78.2327 100.358 71.971 100.925 71.2916 108.08C70.4596 116.842 73.3976 123.576 78.8576 126.488C78.8576 126.488 80.0276 127.06 82.7056 127.528L82.6989 127.396C89.4894 155.064 109.705 175.136 133.588 175.136Z" fill="#C1735C"/>
<path d="M133.588 34.7873C76.3876 33.9813 80.2616 100.827 80.2616 100.827L133.588 104.727L186.914 100.827C186.914 100.827 190.788 33.9813 133.588 34.7873V34.7873Z" fill="#C1735C"/>
<path d="M97.0314 93.2896C105.819 91.7036 113.593 92.9516 117.545 93.7056C118.741 93.9396 119.937 93.3676 120.301 92.3796C120.717 91.2616 119.937 90.1176 118.585 89.8576C114.087 88.9996 106.001 87.6996 97.5254 90.6636C96.2254 91.1316 93.9114 92.4056 94.6134 93.4196C95.0034 93.7836 95.8614 93.4716 97.0314 93.2636V93.2896Z" fill="#441D39"/>
<path d="M170.691 93.3165C161.903 91.7305 154.129 92.9785 150.177 93.7325C148.981 93.9665 147.785 93.3685 147.421 92.3805C147.005 91.2625 147.785 90.0925 149.137 89.8325C153.635 88.9485 161.721 87.6485 170.197 90.6645C171.497 91.1325 173.811 92.4065 173.109 93.4465C172.719 93.8105 171.861 93.4985 170.691 93.2905V93.3165Z" fill="#441D39"/>
<path d="M158.783 112.422C160.52 112.422 161.929 109.977 161.929 106.962C161.929 103.946 160.52 101.502 158.783 101.502C157.045 101.502 155.637 103.946 155.637 106.962C155.637 109.977 157.045 112.422 158.783 112.422Z" fill="#441D39"/>
<path d="M111.592 111.304C113.329 111.304 114.738 108.86 114.738 105.844C114.738 102.829 113.329 100.384 111.592 100.384C109.854 100.384 108.446 102.829 108.446 105.844C108.446 108.86 109.854 111.304 111.592 111.304Z" fill="#441D39"/>
<path d="M137.28 131.507H132.314C130.104 131.507 128.154 130.649 127.114 129.245C126.36 128.231 126.152 127.035 126.516 125.865C127.66 122.121 128.622 118.585 128.622 118.559C128.804 117.857 129.506 117.467 130.208 117.649C130.91 117.831 131.326 118.559 131.118 119.235C131.118 119.235 130.156 122.849 128.986 126.619C128.882 126.983 128.934 127.347 129.194 127.711C129.74 128.465 130.962 128.933 132.314 128.933H137.28C138.008 128.933 138.58 129.505 138.58 130.233C138.58 130.961 138.008 131.533 137.28 131.533V131.507Z" fill="#A5503C"/>
<path d="M125.945 148.458C123.527 148.458 121.941 148.328 121.759 148.302C121.031 148.25 120.511 147.6 120.563 146.898C120.615 146.196 121.239 145.65 121.967 145.702C122.123 145.702 136.787 146.898 147.655 141.542C148.305 141.23 149.085 141.49 149.397 142.14C149.709 142.79 149.449 143.57 148.799 143.882C140.843 147.808 131.301 148.432 125.919 148.432L125.945 148.458Z" fill="#A5503C"/>
<path d="M161.382 120.977C166.394 120.977 170.456 120.046 170.456 118.897C170.456 117.748 166.394 116.817 161.382 116.817C156.371 116.817 152.308 117.748 152.308 118.897C152.308 120.046 156.371 120.977 161.382 120.977Z" fill="#AF5D4E"/>
<path d="M108.445 120.977C113.457 120.977 117.519 120.046 117.519 118.897C117.519 117.748 113.457 116.817 108.445 116.817C103.434 116.817 99.3713 117.748 99.3713 118.897C99.3713 120.046 103.434 120.977 108.445 120.977Z" fill="#AF5D4E"/>
<path d="M168.375 59.8262C168.375 59.8262 184.131 88.2442 186.887 100.828C186.887 100.828 195.415 62.9462 175.317 42.4582L168.375 59.8002V59.8262Z" fill="#FF7C59"/>
<path d="M80.2611 100.83L85.9291 79.1984H79.0131L80.2611 100.83Z" fill="#FF7C59"/>
<path d="M166.581 31.2528C166.581 31.2528 166.581 31.1228 166.581 31.0708C166.581 25.0128 161.667 20.1248 155.635 20.1248C154.309 20.1248 153.087 20.3848 151.917 20.8268C148.693 17.4208 143.649 15.2108 137.929 15.2108C132.651 15.2108 127.919 17.1088 124.669 20.0988C121.263 18.0448 117.051 16.7968 112.501 16.7968C110.577 16.7968 108.731 17.0308 106.963 17.4208C104.389 15.1848 101.061 13.8328 97.3954 13.8328C91.6234 13.8328 86.6574 17.1868 84.2914 22.0488C82.8614 20.8528 81.0414 20.1248 79.0394 20.1248C74.4634 20.1248 70.7714 23.8428 70.7714 28.3928C70.7714 28.8868 70.8234 29.3548 70.9274 29.8228C61.9054 29.9528 54.6254 37.3108 54.6254 46.3588C54.6254 51.8448 57.3034 56.7068 61.4374 59.7228C59.9034 62.2188 59.0194 65.1568 59.0194 68.3288C59.0194 77.4808 66.4294 84.8908 75.5814 84.8908C84.7334 84.8908 92.1434 77.4808 92.1434 68.3288C92.1434 68.1468 92.1434 67.9648 92.1174 67.7828C94.3274 68.8748 96.7974 69.4988 99.4234 69.4988C108.185 69.4988 115.335 62.6868 115.933 54.1068C118.923 57.1488 123.083 59.0208 127.685 59.0208C134.523 59.0208 140.399 54.8608 142.921 48.9328C144.299 56.7068 151.059 62.6088 159.223 62.6088C168.375 62.6088 175.785 55.1988 175.785 46.0468C175.785 39.5728 172.067 33.9828 166.633 31.2528H166.581Z" fill="#441D39"/>
</svg>
